<svg xmlns="http://www.w3.org/2000/svg" viewBox="0 0 1000 340" width="1000" height="340" role="img" aria-labelledby="t d"><title id="t">FlashDrop pairing flow</title><desc id="d">FlashDrop pairing flow (design direction): scan a QR code, pair devices peer-to-peer over Wi-Fi / local network, then transfer. Technology direction: Flutter, Dart, Cross-platform architecture, P2P / Wi-Fi transfer, QR-based pairing. The QR code on this card opens https://github.com/thedenilsonpinto.</desc><style>@keyframes hudPulse{0%,100%{opacity:.55}50%{opacity:1}}@keyframes fqScan{0%,100%{transform:translateY(0)}50%{transform:translateY(186px)}}@keyframes fqStep{0%,28%{opacity:1}34%,100%{opacity:.35}}@media (prefers-reduced-motion:reduce){*{animation:none!important}.rv{opacity:1!important}}</style><defs><linearGradient id="fqBg" x1="0" y1="0" x2="0" y2="1"><stop offset="0" stop-color="#0B0712"/><stop offset=".55" stop-color="#050507"/><stop offset="1" stop-color="#020203"/></linearGradient><radialGradient id="fqHalo" cx=".2" cy=".5" r=".75"><stop offset="0" stop-color="#3A126D" stop-opacity=".55"/><stop offset=".6" stop-color="#261240" stop-opacity=".18"/><stop offset="1" stop-color="#020203" stop-opacity="0"/></radialGradient><linearGradient id="fqBd" x1="0" y1="0" x2="1" y2="1"><stop offset="0" stop-color="#8B5CF6" stop-opacity=".9"/><stop offset=".35" stop-color="#7C3AED" stop-opacity=".5"/><stop offset=".7" stop-color="#452184" stop-opacity=".45"/><stop offset="1" stop-color="#8B5CF6" stop-opacity=".8"/></linearGradient><clipPath id="fqClip"><rect width="1000" height="340" rx="20"/></clipPath><pattern id="hudGrid" width="24" height="24" patternUnits="userSpaceOnUse"><path d="M24 0L0 0L0 24" fill="none" stroke="#371B5C" stroke-width=".6" opacity=".35"/></pattern><linearGradient id="fqTbIce" x1="0" y1="66.9" x2="0" y2="89.4" gradientUnits="userSpaceOnUse"><stop offset="0" stop-color="#FFFFFF"/><stop offset=".55" stop-color="#E3D1FD"/><stop offset="1" stop-color="#C4A6F1"/></linearGradient><filter id="tbBlur" x="-10%" y="-50%" width="120%" height="200%"><feGaussianBlur stdDeviation="6"/></filter><linearGradient id="fqTbLn" x1="0" y1="0" x2="1" y2="0"><stop offset="0" stop-color="#8B5CF6"/><stop offset=".6" stop-color="#7C3AED" stop-opacity=".8"/><stop offset="1" stop-color="#7C3AED" stop-opacity="0"/></linearGradient><path id="g5_31" d="m55-103v-88h114v53l38 38h218l40-40v-129l-39-39h-266l-103-102v-187l103-103h308l103 103v89h-114v-54l-39-38h-208l-39 38v116l39 38h266l103 103v200l-105 105h-316z"/><path id="g5_d" d="m60-113v-474l113-113h328l111 111v92h-116v-51l-53-52h-210l-57 56v388l57 56h210l53-52v-51h116v92l-111 111h-328z"/><path id="g5_4" d="m264-700h110l253 700h-118l-60-166h-261l-60 166h-118zm158 437l-103-296h-2l-101 296z"/><path id="g5_23" d="m70-700h106l330 509h2v-509h111v700h-106l-330-508h-2v508h-111z"/><path id="g5_s2192" d="M32 -315L451 -315L451 -385L32 -385ZM386 -540L631 -350L386 -160Z"/><path id="g5_17" d="m60-113v-474l113-113h334l111 111v92h-116v-51l-53-52h-216l-57 56v388l57 56h216l56-55v-127h-153v-100h266v269l-113 113h-332z"/><path id="g5_19" d="m75-700h116v700h-116z"/><path id="g5_32" d="m230-601h-210v-99h536v99h-210v601h-116z"/><path id="g5_18" d="m70-700h116v301h318v-301h116v700h-116v-299h-318v299h-116z"/><path id="g5_33" d="m70-117v-583h116v544l57 56h206l57-56v-544h116v583l-117 117h-318z"/><path id="g5_c" d="m70-700h424l97 97v196l-43 43l74 74v185l-105 105h-447zm366 301l41-41v-122l-40-40h-254v203zm24 301l48-48v-112l-48-47h-277v207z"/><path id="g5_2d" d="m70-700h426l102 103v238l-103 104h-309v255h-116zm374 347l40-40v-169l-40-40h-258v249z"/><path id="g5_30" d="m602-226v226h-116v-198l-72-79h-228v277h-116v-700h426l102 103v215l-73 73zm-416-147h258l40-40v-149l-40-40h-258z"/><path id="g5_25" d="m60-113v-474l113-113h346l113 113v474l-113 113h-346zm399 13l57-56v-388l-57-56h-226l-57 56v388l57 56z"/><path id="g5_16" d="m70-700h478v99h-362v214h314v99h-314v288h-116z"/><path id="g5_20" d="m70-700h116v601h352v99h-468z"/><path id="g5_11" d="m70-700h488v99h-372v200h343v98h-343v204h372v99h-488z"/><path id="g5_ad" d="m386-700h117l-386 700h-117z"/><path id="g5_22" d="m70-700h111l214 482h2l214-482h112v700h-111v-468h-2l-176 379h-76l-175-379h-2v468h-111z"/><path id="g5_80" d="m60-111v-478l111-111h302l111 111v478l-111 111h-302zm359 11l49-48v-404l-49-48h-194l-49 48v404l49 48z"/><path id="g5_83" d="m40-103v-99h116v64l39 38h190l39-38v-127l-37-37h-200v-100h200l37-37v-123l-39-38h-184l-39 38v64h-116v-99l103-103h288l103 103v192l-54 53l54 54v195l-103 103h-294z"/><path id="g5_aa" d="m45-242v-97l61-63h102l61 63v97l-61 63h-102z"/><path id="g5_f" d="m70-700h433l117 117v466l-117 117h-433zm377 600l57-56v-388l-57-56h-261v500z"/><path id="g5_81" d="m183-577l-153 79v-107l173-95h96v700h-116z"/><path id="g3_2f" d="m630 62l-46 46l-106-108h-298l-110-110v-480l110-110h316l110 110v480l-74 74zm-100-197v-430l-68-67h-248l-68 67v430l68 67h248z"/><path id="g3_30" d="m576-214v214h-76v-193l-96-101h-248v294h-76v-700h400l92 92v221l-81 81zm-420-146h291l50-49v-176l-50-49h-291z"/><path id="g3_b5" d="m55-287h292v66h-292z"/><path id="g3_46" d="m75-92v-622h74v313l97-97h175l92 92v314l-92 92h-254zm314 26l50-49v-268l-50-49h-122l-118 118v199l50 49z"/><path id="g3_3e" d="m60-82v-127l82-81h266v-95l-50-49h-170l-50 49v41h-74v-62l92-92h233l92 92v406h-71v-88l-92 88h-176zm243 18l105-101v-61h-234l-40 39v84l40 39z"/><path id="g3_6d" d="m50-82v-62h74v41l40 39h184l40-39v-77l-40-40h-215l-79-79v-117l82-82h234l82 82v62h-74v-41l-40-39h-170l-40 39v73l40 40h212l82 82v118l-82 82h-248z"/><path id="g3_4b" d="m65-92v-314l92-92h251l93 92v179h-362v112l50 49h187l50-49v-38h74v61l-92 92h-251zm362-199v-92l-50-49h-188l-50 49v92z"/><path id="g3_49" d="m65-92v-314l92-92h192l82 72v-288h74v714h-72v-91l-91 91h-185zm261 26l105-105v-177l-96-84h-146l-50 49v268l50 49z"/><path id="g3_75" d="m15-498h76l148 424h4l148-424h76l-183 498h-86z"/><path id="g3_53" d="m70-612v-44l30-30h44l30 30v44l-30 30h-44zm15 114h74v498h-74z"/><path id="g3_47" d="m65-92v-314l92-92h240l92 92v61h-74v-38l-50-49h-176l-50 49v268l50 49h176l50-49v-38h74v61l-92 92h-240z"/><path id="g3_69" d="m75-498h72v89l89-89h187l92 92v314l-92 92h-192l-82-72v284h-74zm316 432l50-49v-268l-50-49h-135l-107 107v172l96 87z"/><path id="g3_6c" d="m75-498h72v89l89-89h129v66h-110l-106 106v326h-74z"/><path id="g3_5f" d="m75-498h72v106l106-106h153l92 92v406h-74v-383l-50-49h-101l-124 124v308h-74z"/><path id="g3_51" d="m505-498v625l-91 91h-247l-77-77v-61h74v37l35 35h182l50-49v-186l-92 83h-182l-92-92v-314l92-92h189l87 87v-87zm-74 171l-105-105h-137l-50 49v268l50 49h138l104-97z"/><path id="g5_82" d="m44-147l362-338v-77l-39-38h-172l-39 38v65h-116v-100l103-103h276l103 103v146l-359 331v21h363v99h-482z"/><path id="g3_2d" d="m80-700h400l92 92v225l-93 93h-323v290h-76zm367 344l50-49v-180l-50-49h-291v278z"/><path id="g3_82" d="m54-134l366-362v-87l-50-49h-194l-50 49v53h-76v-78l92-92h262l92 92v134l-366 362v44h370v68h-446z"/><path id="g3_61" d="m65-92v-314l92-92h256l92 92v314l-92 92h-256zm316 26l50-49v-268l-50-49h-192l-50 49v268l50 49z"/><path id="g3_39" d="m40-700h77l112 592h2l168-592h74l162 592h2l109-592h77l-141 700h-82l-163-592h-2l-172 592h-82z"/><path id="g3_16" d="m80-700h442v68h-366v252h318v68h-318v312h-76z"/><path id="g3_ad" d="m387-701h78l-387 701h-78z"/><path id="g3_20" d="m80-700h76v633h356v67h-432z"/><path id="g3_4" d="m269-700h82l249 700h-79l-65-189h-292l-65 189h-79zm165 445l-123-357h-2l-122 357z"/><path id="g3_23" d="m80-700h74l365 576h2v-576h72v700h-74l-365-576h-2v576h-72z"/><path id="g3_s2194" d="M157 -315L471 -315L471 -385L157 -385ZM201 -520L13 -350L201 -180ZM427 -520L615 -350L427 -180Z"/><path id="g3_a1" d="m93 0h-12l-29-29v-44l29-29h44l29 29v73l-50 124h-41z"/><path id="g3_5c" d="m80-714h74v714h-74z"/><path id="g5_3b" d="m252-288l-247-412h127l177 304h2l177-304h127l-247 412v288h-116z"/><path id="g4_16" d="m75-700h460v84h-364v232h316v84h-316v300h-96z"/><path id="g4_5c" d="m75-714h93v714h-93z"/><path id="g4_70" d="m65-96v-402h93v373l45 44h93l116-116v-301h93v498h-89v-99l-99 99h-156z"/><path id="g4_6f" d="m115-95v-323h-90v-80h92v-162h91v162h155v81h-155v292l45 44h110v81h-152z"/><path id="g4_4b" d="m60-95v-307l96-96h261l96 96v182h-360v96l44 44h179l44-43v-34h92v62l-94 95h-263zm360-198v-81l-45-44h-177l-45 44v81z"/><path id="g4_6c" d="m70-498h89v87l86-87h133v81h-112l-103 104v313h-93z"/><path id="g4_f" d="m75-700h419l113 113v474l-113 113h-419zm374 616l62-62v-408l-62-62h-278v532z"/><path id="g4_3e" d="m55-85v-123l85-85h262v-84l-44-43h-163l-43 43v37h-93v-61l97-97h241l97 97v401h-87v-82l-86 82h-181zm253 8l94-90v-52h-219l-35 35v73l35 34z"/><path id="g4_d" d="m65-112v-476l112-112h314l108 108v79h-96v-45l-58-58h-222l-62 62v408l62 62h222l58-58v-45h96v79l-108 108h-314z"/><path id="g4_61" d="m60-96v-306l96-96h266l95 96v306l-95 96h-266zm319 15l45-44v-248l-45-44h-181l-45 44v248l45 44z"/><path id="g4_6d" d="m45-87v-62h93v37l34 33h176l34-33v-66l-34-35h-215l-84-84v-114l86-87h243l87 87v62h-93v-37l-34-33h-162l-34 33v62l34 35h213l86 86v116l-86 87h-257z"/><path id="g4_b5" d="m50-296h312v82h-312z"/><path id="g4_69" d="m70-498h89v84l83-84h190l95 96v306l-95 96h-193l-76-66v278h-93zm319 417l45-45v-246l-45-45h-128l-98 99v155l91 82z"/><path id="g4_50" d="m115-418h-90v-80h90v-107l92-92h157v79h-117l-39 39v81h156v80h-156v418h-93z"/><path id="g4_5e" d="m70-498h89v91l91-91h121l75 75l74-75h163l97 97v401h-93v-372l-45-45h-101l-65 65v352h-90v-373l-44-44h-76l-103 103v314h-93z"/><path id="g4_47" d="m60-95v-308l95-95h251l96 96v71h-93v-41l-45-45h-166l-45 45v246l45 45h166l45-45v-41h93v71l-96 96h-251z"/><path id="g4_52" d="m70-714h93v311l95-95h157l98 98v400h-93v-372l-45-45h-97l-115 115v302h-93z"/><path id="g4_53" d="m65-609v-50l35-36h53l35 36v50l-35 36h-53zm15 111h93v498h-93z"/><path id="g4_2d" d="m75-700h413l97 97v232l-98 98h-316v273h-96zm370 345l45-44v-175l-45-44h-274v263z"/><path id="g4_82" d="m49-140l364-351v-81l-44-44h-184l-44 44v59h-96v-90l97-97h270l97 97v140l-362 347v33h366v83h-464z"/><path id="g4_ad" d="m387-701h97l-387 701h-97z"/><path id="g4_39" d="m35-700h97l103 559h3l158-559h83l154 559h2l101-559h97l-142 700h-97l-155-559h-3l-162 559h-97z"/><path id="g4_5f" d="m70-498h89v98l98-98h156l98 98v400h-93v-372l-45-45h-95l-115 115v302h-93z"/><path id="g4_2f" d="m642 60l-59 59l-117-119h-289l-112-112v-476l112-112h330l112 112v476l-74 74zm-119-206v-408l-62-62h-238l-62 62v408l62 62h238z"/><path id="g4_30" d="m589-220v220h-96v-196l-83-89h-239v285h-96v-700h413l97 97v218l-77 77zm-418-147h274l45-44v-163l-45-44h-274z"/><path id="g4_46" d="m70-97v-617h93v304l89-88h178l95 96v306l-95 96h-263zm316 16l46-46v-244l-46-46h-114l-109 109v181l46 46z"/><path id="g4_49" d="m60-96v-306l96-96h194l74 65v-281h93v714h-89v-86l-86 86h-186zm267 15l97-98v-161l-87-77h-138l-46 46v244l46 46z"/><path id="g4_51" d="m517-498v621l-96 96h-255l-83-82v-63h94v34l29 30h173l45-44v-171l-84 77h-184l-96-96v-306l96-96h191l82 81v-81zm-93 172l-93-91h-132l-46 46v244l46 46h129l96-93z"/></defs><rect width="1000" height="340" rx="20" fill="url(#fqBg)"/><g clip-path="url(#fqClip)"><rect width="1000" height="340" fill="url(#fqHalo)"/><rect width="1000" height="340" fill="url(#hudGrid)"/></g><g clip-path="url(#fqClip)"><rect x="42" y="58" width="218" height="218" rx="12" fill="#F5F3FF"/><path d="M56 72h6.55v6.55h-6.55zM62.55 72h6.55v6.55h-6.55zM69.1 72h6.55v6.55h-6.55zM75.66 72h6.55v6.55h-6.55zM82.21 72h6.55v6.55h-6.55zM88.76 72h6.55v6.55h-6.55zM95.31 72h6.55v6.55h-6.55zM108.41 72h6.55v6.55h-6.55zM141.17 72h6.55v6.55h-6.55zM147.72 72h6.55v6.55h-6.55zM154.28 72h6.55v6.55h-6.55zM167.38 72h6.55v6.55h-6.55zM173.93 72h6.55v6.55h-6.55zM200.14 72h6.55v6.55h-6.55zM206.69 72h6.55v6.55h-6.55zM213.24 72h6.55v6.55h-6.55zM219.79 72h6.55v6.55h-6.55zM226.34 72h6.55v6.55h-6.55zM232.9 72h6.55v6.55h-6.55zM239.45 72h6.55v6.55h-6.55zM56 78.55h6.55v6.55h-6.55zM95.31 78.55h6.55v6.55h-6.55zM121.52 78.55h6.55v6.55h-6.55zM154.28 78.55h6.55v6.55h-6.55zM173.93 78.55h6.55v6.55h-6.55zM187.03 78.55h6.55v6.55h-6.55zM200.14 78.55h6.55v6.55h-6.55zM239.45 78.55h6.55v6.55h-6.55zM56 85.1h6.55v6.55h-6.55zM69.1 85.1h6.55v6.55h-6.55zM75.66 85.1h6.55v6.55h-6.55zM82.21 85.1h6.55v6.55h-6.55zM95.31 85.1h6.55v6.55h-6.55zM108.41 85.1h6.55v6.55h-6.55zM114.97 85.1h6.55v6.55h-6.55zM121.52 85.1h6.55v6.55h-6.55zM141.17 85.1h6.55v6.55h-6.55zM167.38 85.1h6.55v6.55h-6.55zM173.93 85.1h6.55v6.55h-6.55zM180.48 85.1h6.55v6.55h-6.55zM200.14 85.1h6.55v6.55h-6.55zM213.24 85.1h6.55v6.55h-6.55zM219.79 85.1h6.55v6.55h-6.55zM226.34 85.1h6.55v6.55h-6.55zM239.45 85.1h6.55v6.55h-6.55zM56 91.66h6.55v6.55h-6.55zM69.1 91.66h6.55v6.55h-6.55zM75.66 91.66h6.55v6.55h-6.55zM82.21 91.66h6.55v6.55h-6.55zM95.31 91.66h6.55v6.55h-6.55zM114.97 91.66h6.55v6.55h-6.55zM134.62 91.66h6.55v6.55h-6.55zM154.28 91.66h6.55v6.55h-6.55zM167.38 91.66h6.55v6.55h-6.55zM173.93 91.66h6.55v6.55h-6.55zM200.14 91.66h6.55v6.55h-6.55zM213.24 91.66h6.55v6.55h-6.55zM219.79 91.66h6.55v6.55h-6.55zM226.34 91.66h6.55v6.55h-6.55zM239.45 91.66h6.55v6.55h-6.55zM56 98.21h6.55v6.55h-6.55zM69.1 98.21h6.55v6.55h-6.55zM75.66 98.21h6.55v6.55h-6.55zM82.21 98.21h6.55v6.55h-6.55zM95.31 98.21h6.55v6.55h-6.55zM114.97 98.21h6.55v6.55h-6.55zM134.62 98.21h6.55v6.55h-6.55zM154.28 98.21h6.55v6.55h-6.55zM160.83 98.21h6.55v6.55h-6.55zM167.38 98.21h6.55v6.55h-6.55zM173.93 98.21h6.55v6.55h-6.55zM200.14 98.21h6.55v6.55h-6.55zM213.24 98.21h6.55v6.55h-6.55zM219.79 98.21h6.55v6.55h-6.55zM226.34 98.21h6.55v6.55h-6.55zM239.45 98.21h6.55v6.55h-6.55zM56 104.76h6.55v6.55h-6.55zM95.31 104.76h6.55v6.55h-6.55zM108.41 104.76h6.55v6.55h-6.55zM114.97 104.76h6.55v6.55h-6.55zM121.52 104.76h6.55v6.55h-6.55zM134.62 104.76h6.55v6.55h-6.55zM141.17 104.76h6.55v6.55h-6.55zM147.72 104.76h6.55v6.55h-6.55zM160.83 104.76h6.55v6.55h-6.55zM173.93 104.76h6.55v6.55h-6.55zM200.14 104.76h6.55v6.55h-6.55zM239.45 104.76h6.55v6.55h-6.55zM56 111.31h6.55v6.55h-6.55zM62.55 111.31h6.55v6.55h-6.55zM69.1 111.31h6.55v6.55h-6.55zM75.66 111.31h6.55v6.55h-6.55zM82.21 111.31h6.55v6.55h-6.55zM88.76 111.31h6.55v6.55h-6.55zM95.31 111.31h6.55v6.55h-6.55zM108.41 111.31h6.55v6.55h-6.55zM121.52 111.31h6.55v6.55h-6.55zM134.62 111.31h6.55v6.55h-6.55zM147.72 111.31h6.55v6.55h-6.55zM160.83 111.31h6.55v6.55h-6.55zM173.93 111.31h6.55v6.55h-6.55zM187.03 111.31h6.55v6.55h-6.55zM200.14 111.31h6.55v6.55h-6.55zM206.69 111.31h6.55v6.55h-6.55zM213.24 111.31h6.55v6.55h-6.55zM219.79 111.31h6.55v6.55h-6.55zM226.34 111.31h6.55v6.55h-6.55zM232.9 111.31h6.55v6.55h-6.55zM239.45 111.31h6.55v6.55h-6.55zM114.97 117.86h6.55v6.55h-6.55zM121.52 117.86h6.55v6.55h-6.55zM141.17 117.86h6.55v6.55h-6.55zM154.28 117.86h6.55v6.55h-6.55zM160.83 117.86h6.55v6.55h-6.55zM173.93 117.86h6.55v6.55h-6.55zM56 124.41h6.55v6.55h-6.55zM69.1 124.41h6.55v6.55h-6.55zM95.31 124.41h6.55v6.55h-6.55zM101.86 124.41h6.55v6.55h-6.55zM141.17 124.41h6.55v6.55h-6.55zM160.83 124.41h6.55v6.55h-6.55zM187.03 124.41h6.55v6.55h-6.55zM206.69 124.41h6.55v6.55h-6.55zM226.34 124.41h6.55v6.55h-6.55zM239.45 124.41h6.55v6.55h-6.55zM56 130.97h6.55v6.55h-6.55zM62.55 130.97h6.55v6.55h-6.55zM69.1 130.97h6.55v6.55h-6.55zM82.21 130.97h6.55v6.55h-6.55zM108.41 130.97h6.55v6.55h-6.55zM121.52 130.97h6.55v6.55h-6.55zM128.07 130.97h6.55v6.55h-6.55zM154.28 130.97h6.55v6.55h-6.55zM160.83 130.97h6.55v6.55h-6.55zM167.38 130.97h6.55v6.55h-6.55zM180.48 130.97h6.55v6.55h-6.55zM187.03 130.97h6.55v6.55h-6.55zM193.59 130.97h6.55v6.55h-6.55zM200.14 130.97h6.55v6.55h-6.55zM206.69 130.97h6.55v6.55h-6.55zM232.9 130.97h6.55v6.55h-6.55zM239.45 130.97h6.55v6.55h-6.55zM62.55 137.52h6.55v6.55h-6.55zM82.21 137.52h6.55v6.55h-6.55zM95.31 137.52h6.55v6.55h-6.55zM101.86 137.52h6.55v6.55h-6.55zM141.17 137.52h6.55v6.55h-6.55zM147.72 137.52h6.55v6.55h-6.55zM154.28 137.52h6.55v6.55h-6.55zM160.83 137.52h6.55v6.55h-6.55zM180.48 137.52h6.55v6.55h-6.55zM187.03 137.52h6.55v6.55h-6.55zM200.14 137.52h6.55v6.55h-6.55zM206.69 137.52h6.55v6.55h-6.55zM213.24 137.52h6.55v6.55h-6.55zM219.79 137.52h6.55v6.55h-6.55zM226.34 137.52h6.55v6.55h-6.55zM239.45 137.52h6.55v6.55h-6.55zM69.1 144.07h6.55v6.55h-6.55zM88.76 144.07h6.55v6.55h-6.55zM101.86 144.07h6.55v6.55h-6.55zM108.41 144.07h6.55v6.55h-6.55zM121.52 144.07h6.55v6.55h-6.55zM147.72 144.07h6.55v6.55h-6.55zM160.83 144.07h6.55v6.55h-6.55zM187.03 144.07h6.55v6.55h-6.55zM193.59 144.07h6.55v6.55h-6.55zM213.24 144.07h6.55v6.55h-6.55zM219.79 144.07h6.55v6.55h-6.55zM56 150.62h6.55v6.55h-6.55zM62.55 150.62h6.55v6.55h-6.55zM82.21 150.62h6.55v6.55h-6.55zM88.76 150.62h6.55v6.55h-6.55zM95.31 150.62h6.55v6.55h-6.55zM101.86 150.62h6.55v6.55h-6.55zM108.41 150.62h6.55v6.55h-6.55zM121.52 150.62h6.55v6.55h-6.55zM134.62 150.62h6.55v6.55h-6.55zM141.17 150.62h6.55v6.55h-6.55zM147.72 150.62h6.55v6.55h-6.55zM154.28 150.62h6.55v6.55h-6.55zM180.48 150.62h6.55v6.55h-6.55zM200.14 150.62h6.55v6.55h-6.55zM206.69 150.62h6.55v6.55h-6.55zM239.45 150.62h6.55v6.55h-6.55zM75.66 157.17h6.55v6.55h-6.55zM82.21 157.17h6.55v6.55h-6.55zM88.76 157.17h6.55v6.55h-6.55zM101.86 157.17h6.55v6.55h-6.55zM114.97 157.17h6.55v6.55h-6.55zM134.62 157.17h6.55v6.55h-6.55zM141.17 157.17h6.55v6.55h-6.55zM147.72 157.17h6.55v6.55h-6.55zM154.28 157.17h6.55v6.55h-6.55zM160.83 157.17h6.55v6.55h-6.55zM167.38 157.17h6.55v6.55h-6.55zM180.48 157.17h6.55v6.55h-6.55zM187.03 157.17h6.55v6.55h-6.55zM200.14 157.17h6.55v6.55h-6.55zM206.69 157.17h6.55v6.55h-6.55zM232.9 157.17h6.55v6.55h-6.55zM239.45 157.17h6.55v6.55h-6.55zM69.1 163.72h6.55v6.55h-6.55zM75.66 163.72h6.55v6.55h-6.55zM82.21 163.72h6.55v6.55h-6.55zM95.31 163.72h6.55v6.55h-6.55zM101.86 163.72h6.55v6.55h-6.55zM108.41 163.72h6.55v6.55h-6.55zM114.97 163.72h6.55v6.55h-6.55zM128.07 163.72h6.55v6.55h-6.55zM134.62 163.72h6.55v6.55h-6.55zM154.28 163.72h6.55v6.55h-6.55zM160.83 163.72h6.55v6.55h-6.55zM167.38 163.72h6.55v6.55h-6.55zM173.93 163.72h6.55v6.55h-6.55zM180.48 163.72h6.55v6.55h-6.55zM193.59 163.72h6.55v6.55h-6.55zM200.14 163.72h6.55v6.55h-6.55zM206.69 163.72h6.55v6.55h-6.55zM213.24 163.72h6.55v6.55h-6.55zM239.45 163.72h6.55v6.55h-6.55zM56 170.28h6.55v6.55h-6.55zM69.1 170.28h6.55v6.55h-6.55zM82.21 170.28h6.55v6.55h-6.55zM101.86 170.28h6.55v6.55h-6.55zM114.97 170.28h6.55v6.55h-6.55zM128.07 170.28h6.55v6.55h-6.55zM141.17 170.28h6.55v6.55h-6.55zM154.28 170.28h6.55v6.55h-6.55zM160.83 170.28h6.55v6.55h-6.55zM173.93 170.28h6.55v6.55h-6.55zM180.48 170.28h6.55v6.55h-6.55zM187.03 170.28h6.55v6.55h-6.55zM200.14 170.28h6.55v6.55h-6.55zM206.69 170.28h6.55v6.55h-6.55zM62.55 176.83h6.55v6.55h-6.55zM82.21 176.83h6.55v6.55h-6.55zM88.76 176.83h6.55v6.55h-6.55zM95.31 176.83h6.55v6.55h-6.55zM108.41 176.83h6.55v6.55h-6.55zM134.62 176.83h6.55v6.55h-6.55zM141.17 176.83h6.55v6.55h-6.55zM160.83 176.83h6.55v6.55h-6.55zM187.03 176.83h6.55v6.55h-6.55zM193.59 176.83h6.55v6.55h-6.55zM200.14 176.83h6.55v6.55h-6.55zM239.45 176.83h6.55v6.55h-6.55zM101.86 183.38h6.55v6.55h-6.55zM114.97 183.38h6.55v6.55h-6.55zM121.52 183.38h6.55v6.55h-6.55zM134.62 183.38h6.55v6.55h-6.55zM154.28 183.38h6.55v6.55h-6.55zM160.83 183.38h6.55v6.55h-6.55zM167.38 183.38h6.55v6.55h-6.55zM180.48 183.38h6.55v6.55h-6.55zM200.14 183.38h6.55v6.55h-6.55zM206.69 183.38h6.55v6.55h-6.55zM226.34 183.38h6.55v6.55h-6.55zM232.9 183.38h6.55v6.55h-6.55zM239.45 183.38h6.55v6.55h-6.55zM56 189.93h6.55v6.55h-6.55zM62.55 189.93h6.55v6.55h-6.55zM69.1 189.93h6.55v6.55h-6.55zM75.66 189.93h6.55v6.55h-6.55zM95.31 189.93h6.55v6.55h-6.55zM101.86 189.93h6.55v6.55h-6.55zM108.41 189.93h6.55v6.55h-6.55zM141.17 189.93h6.55v6.55h-6.55zM147.72 189.93h6.55v6.55h-6.55zM154.28 189.93h6.55v6.55h-6.55zM167.38 189.93h6.55v6.55h-6.55zM180.48 189.93h6.55v6.55h-6.55zM213.24 189.93h6.55v6.55h-6.55zM219.79 189.93h6.55v6.55h-6.55zM239.45 189.93h6.55v6.55h-6.55zM75.66 196.48h6.55v6.55h-6.55zM82.21 196.48h6.55v6.55h-6.55zM88.76 196.48h6.55v6.55h-6.55zM128.07 196.48h6.55v6.55h-6.55zM147.72 196.48h6.55v6.55h-6.55zM187.03 196.48h6.55v6.55h-6.55zM200.14 196.48h6.55v6.55h-6.55zM213.24 196.48h6.55v6.55h-6.55zM56 203.03h6.55v6.55h-6.55zM62.55 203.03h6.55v6.55h-6.55zM75.66 203.03h6.55v6.55h-6.55zM95.31 203.03h6.55v6.55h-6.55zM108.41 203.03h6.55v6.55h-6.55zM121.52 203.03h6.55v6.55h-6.55zM128.07 203.03h6.55v6.55h-6.55zM134.62 203.03h6.55v6.55h-6.55zM141.17 203.03h6.55v6.55h-6.55zM147.72 203.03h6.55v6.55h-6.55zM160.83 203.03h6.55v6.55h-6.55zM187.03 203.03h6.55v6.55h-6.55zM193.59 203.03h6.55v6.55h-6.55zM200.14 203.03h6.55v6.55h-6.55zM206.69 203.03h6.55v6.55h-6.55zM213.24 203.03h6.55v6.55h-6.55zM219.79 203.03h6.55v6.55h-6.55zM232.9 203.03h6.55v6.55h-6.55zM108.41 209.59h6.55v6.55h-6.55zM121.52 209.59h6.55v6.55h-6.55zM128.07 209.59h6.55v6.55h-6.55zM141.17 209.59h6.55v6.55h-6.55zM147.72 209.59h6.55v6.55h-6.55zM154.28 209.59h6.55v6.55h-6.55zM160.83 209.59h6.55v6.55h-6.55zM173.93 209.59h6.55v6.55h-6.55zM187.03 209.59h6.55v6.55h-6.55zM213.24 209.59h6.55v6.55h-6.55zM219.79 209.59h6.55v6.55h-6.55zM226.34 209.59h6.55v6.55h-6.55zM239.45 209.59h6.55v6.55h-6.55zM56 216.14h6.55v6.55h-6.55zM62.55 216.14h6.55v6.55h-6.55zM69.1 216.14h6.55v6.55h-6.55zM75.66 216.14h6.55v6.55h-6.55zM82.21 216.14h6.55v6.55h-6.55zM88.76 216.14h6.55v6.55h-6.55zM95.31 216.14h6.55v6.55h-6.55zM108.41 216.14h6.55v6.55h-6.55zM121.52 216.14h6.55v6.55h-6.55zM128.07 216.14h6.55v6.55h-6.55zM154.28 216.14h6.55v6.55h-6.55zM160.83 216.14h6.55v6.55h-6.55zM173.93 216.14h6.55v6.55h-6.55zM187.03 216.14h6.55v6.55h-6.55zM200.14 216.14h6.55v6.55h-6.55zM213.24 216.14h6.55v6.55h-6.55zM239.45 216.14h6.55v6.55h-6.55zM56 222.69h6.55v6.55h-6.55zM95.31 222.69h6.55v6.55h-6.55zM114.97 222.69h6.55v6.55h-6.55zM128.07 222.69h6.55v6.55h-6.55zM134.62 222.69h6.55v6.55h-6.55zM141.17 222.69h6.55v6.55h-6.55zM173.93 222.69h6.55v6.55h-6.55zM180.48 222.69h6.55v6.55h-6.55zM187.03 222.69h6.55v6.55h-6.55zM213.24 222.69h6.55v6.55h-6.55zM232.9 222.69h6.55v6.55h-6.55zM239.45 222.69h6.55v6.55h-6.55zM56 229.24h6.55v6.55h-6.55zM69.1 229.24h6.55v6.55h-6.55zM75.66 229.24h6.55v6.55h-6.55zM82.21 229.24h6.55v6.55h-6.55zM95.31 229.24h6.55v6.55h-6.55zM114.97 229.24h6.55v6.55h-6.55zM121.52 229.24h6.55v6.55h-6.55zM134.62 229.24h6.55v6.55h-6.55zM141.17 229.24h6.55v6.55h-6.55zM154.28 229.24h6.55v6.55h-6.55zM180.48 229.24h6.55v6.55h-6.55zM187.03 229.24h6.55v6.55h-6.55zM193.59 229.24h6.55v6.55h-6.55zM200.14 229.24h6.55v6.55h-6.55zM206.69 229.24h6.55v6.55h-6.55zM213.24 229.24h6.55v6.55h-6.55zM219.79 229.24h6.55v6.55h-6.55zM232.9 229.24h6.55v6.55h-6.55zM239.45 229.24h6.55v6.55h-6.55zM56 235.79h6.55v6.55h-6.55zM69.1 235.79h6.55v6.55h-6.55zM75.66 235.79h6.55v6.55h-6.55zM82.21 235.79h6.55v6.55h-6.55zM95.31 235.79h6.55v6.55h-6.55zM114.97 235.79h6.55v6.55h-6.55zM128.07 235.79h6.55v6.55h-6.55zM141.17 235.79h6.55v6.55h-6.55zM154.28 235.79h6.55v6.55h-6.55zM160.83 235.79h6.55v6.55h-6.55zM167.38 235.79h6.55v6.55h-6.55zM180.48 235.79h6.55v6.55h-6.55zM187.03 235.79h6.55v6.55h-6.55zM193.59 235.79h6.55v6.55h-6.55zM213.24 235.79h6.55v6.55h-6.55zM219.79 235.79h6.55v6.55h-6.55zM226.34 235.79h6.55v6.55h-6.55zM239.45 235.79h6.55v6.55h-6.55zM56 242.34h6.55v6.55h-6.55zM69.1 242.34h6.55v6.55h-6.55zM75.66 242.34h6.55v6.55h-6.55zM82.21 242.34h6.55v6.55h-6.55zM95.31 242.34h6.55v6.55h-6.55zM108.41 242.34h6.55v6.55h-6.55zM121.52 242.34h6.55v6.55h-6.55zM147.72 242.34h6.55v6.55h-6.55zM154.28 242.34h6.55v6.55h-6.55zM160.83 242.34h6.55v6.55h-6.55zM193.59 242.34h6.55v6.55h-6.55zM213.24 242.34h6.55v6.55h-6.55zM232.9 242.34h6.55v6.55h-6.55zM239.45 242.34h6.55v6.55h-6.55zM56 248.9h6.55v6.55h-6.55zM95.31 248.9h6.55v6.55h-6.55zM154.28 248.9h6.55v6.55h-6.55zM160.83 248.9h6.55v6.55h-6.55zM173.93 248.9h6.55v6.55h-6.55zM187.03 248.9h6.55v6.55h-6.55zM206.69 248.9h6.55v6.55h-6.55zM213.24 248.9h6.55v6.55h-6.55zM219.79 248.9h6.55v6.55h-6.55zM56 255.45h6.55v6.55h-6.55zM62.55 255.45h6.55v6.55h-6.55zM69.1 255.45h6.55v6.55h-6.55zM75.66 255.45h6.55v6.55h-6.55zM82.21 255.45h6.55v6.55h-6.55zM88.76 255.45h6.55v6.55h-6.55zM95.31 255.45h6.55v6.55h-6.55zM108.41 255.45h6.55v6.55h-6.55zM114.97 255.45h6.55v6.55h-6.55zM128.07 255.45h6.55v6.55h-6.55zM160.83 255.45h6.55v6.55h-6.55zM187.03 255.45h6.55v6.55h-6.55zM213.24 255.45h6.55v6.55h-6.55zM219.79 255.45h6.55v6.55h-6.55zM239.45 255.45h6.55v6.55h-6.55z" fill="#020203"/><rect x="42" y="72" width="218" height="3" fill="#8B5CF6" opacity=".85" style="animation:fqScan 3s ease-in-out infinite"/><rect x="36" y="52" width="230" height="230" rx="16" fill="none" stroke="#8B5CF6" stroke-width="1.6"/><g transform="translate(58.78 304) scale(.0105)" fill="#B9AED6"><use href="#g5_31" x="0"/><use href="#g5_d" x="929"/><use href="#g5_4" x="1871"/><use href="#g5_23" x="2808"/><use href="#g5_s2192" x="4360"/><use href="#g5_17" x="5867"/><use href="#g5_19" x="6835"/><use href="#g5_32" x="7401"/><use href="#g5_18" x="8277"/><use href="#g5_33" x="9267"/><use href="#g5_c" x="10259"/><use href="#g5_2d" x="11784"/><use href="#g5_30" x="12722"/><use href="#g5_25" x="13689"/><use href="#g5_16" x="14681"/><use href="#g5_19" x="15549"/><use href="#g5_20" x="16115"/><use href="#g5_11" x="16968"/></g><g transform="translate(330 52) scale(.0115)" fill="#C4B5FD"><use href="#g5_ad" x="0"/><use href="#g5_ad" x="843"/><use href="#g5_d" x="2289"/><use href="#g5_18" x="3276"/><use href="#g5_4" x="4306"/><use href="#g5_22" x="5283"/><use href="#g5_c" x="6416"/><use href="#g5_11" x="7418"/><use href="#g5_30" x="8356"/><use href="#g5_80" x="9966"/><use href="#g5_83" x="10950"/><use href="#g5_aa" x="13091"/><use href="#g5_f" x="14951"/><use href="#g5_11" x="15971"/><use href="#g5_31" x="16909"/><use href="#g5_19" x="17878"/><use href="#g5_17" x="18484"/><use href="#g5_23" x="19492"/><use href="#g5_f" x="21124"/><use href="#g5_19" x="22144"/><use href="#g5_30" x="22750"/><use href="#g5_11" x="23757"/><use href="#g5_d" x="24695"/><use href="#g5_32" x="25677"/><use href="#g5_19" x="26593"/><use href="#g5_25" x="27199"/><use href="#g5_23" x="28231"/></g><path d="m339.1 68.4h3.4q3 0 4.7.8q1.8.8 2.6 2.1q.9 1.3 1 2.8q.1 1.7-.5 3q-.6 1.4-1.7 2.3q-1 .9-2.4 1.3q-1.3.3-2.8.1q-1.5-.3-2.9-1.3v-.3q0 0 .3 0q.3-.1.8-.2q.4-.2.9-.6q.5-.3.9-1q.5-.7.7-1.7q.1-.5.2-.9q0-.5 0-.9q-.1-1.8-1-2.9q-1-1.1-2.7-1.1h-1.2q0 0-.1-.4q0-.3-.1-.7q-.1-.4-.1-.4zm.4 0v21h-6.1v-21zm-6.1 18.8v2.2h-2.3v-.3q0 0 .2 0q.1 0 .1 0q.8 0 1.4-.6q.5-.5.6-1.3zm0-16.6h0q0-.8-.6-1.3q-.6-.6-1.4-.6q0 0-.1 0q-.2 0-.2 0l0-.3h2.3zm6 16.6h.1q0 .8.6 1.3q.5.6 1.3.6q.1 0 .2 0q.2 0 .2 0v.3h-2.4zm22.2-19.5l10.4 21.5h-7.2l-5.8-13.8zm-6.5 19.5q-.2.6-.1 1q.2.5.5.7q.4.2.8.2h.3v.3h-6.7v-.3q0 0 .1 0q.1 0 .1 0q.7 0 1.5-.4q.7-.5 1.2-1.5zm6.5-19.5v4.7l-7.4 16.9h-2.4l7.8-17.1q.2-.3.4-.9q.3-.6.6-1.3q.2-.7.5-1.3q.2-.6.2-1zm2.5 15.2v1.5h-8.5v-1.5zm-.2 4.3h7.1q.5 1 1.2 1.5q.7.4 1.4.4q0 0 .1 0q.2 0 .2 0v.3h-11.4v-.3h.3q.6 0 1-.5q.5-.5.1-1.4zm19.9-18.8v21h-6.1v-21zm-6 18.8v2.2h-2.4v-.3q0 0 .2 0q.2 0 .2 0q.7 0 1.3-.6q.5-.5.6-1.3zm0-16.6h-.1q-.1-.8-.6-1.3q-.6-.6-1.3-.6q0 0-.2 0q-.2 0-.2 0v-.3h2.4zm5.9 16.6h.1q0 .8.6 1.3q.6.6 1.3.6q0 0 .2 0q.2 0 .2 0v.3h-2.4zm0-16.6v-2.2h2.4v.3q0 0-.2 0q-.2 0-.2 0q-.7 0-1.3.6q-.6.5-.6 1.3zm14.2-2.2h3.7q1.3 0 2.7.2q1.5.3 2.6.9q1.2.6 1.9 1.7q.7 1.1.7 2.9q0 1.1-.4 2.3q-.4 1.2-1.4 2.2q-1.1.9-3 1.2q1.3.3 2.2 1.2q1 .9 1.5 1.8q0 .1.3.5q.2.4.6 1q.4.6.8 1.3q.4.6.8 1.2q.7 1 1.2 1.4q.6.5 1.1.7q.5.2 1.2.2v.3h-3.7q-1.8 0-3.4-.2q-1.5-.2-2.7-.9q-1.2-.8-2.2-2.3q-.3-.6-.5-1.1q-.2-.5-.3-1.1q-.2-.5-.3-.9q-.1-.5-.2-.9q-.1-.5-.2-.8q-.3-1.1-.7-1.5q-.4-.4-.9-.6v-.3q.1 0 .3 0q.2 0 .2 0q.9 0 1.5-.3q.7-.4 1.1-1.3q.5-.8.6-2q.1-.3.1-.6q0-.3 0-.7q-.1-2.2-1.1-3.1q-1-.8-2.3-.8q-.2 0-.4 0q-.3 0-.5 0q-.3 0-.6 0q0 0 0-.4q-.1-.4-.2-.8q-.1-.4-.1-.4zm.4 0v21h-6.1v-21zm-6.1 18.8v2.2h-2.3v-.3q0 0 .2 0q.1 0 .1 0q.8 0 1.4-.6q.5-.5.6-1.3zm0-16.6h0q-.1-.8-.6-1.3q-.6-.6-1.4-.6q0 0-.1 0q-.2 0-.2 0v-.3h2.3zm6 16.6h.1q0 .8.6 1.3q.6.6 1.4.6q0 0 .2 0q.1 0 .1 0v.3h-2.4zm25.6-18.8v21h-6.2v-21zm-6.1 18.8v2.2h-2.4v-.3q0 0 .2 0q.2 0 .2 0q.8 0 1.3-.6q.6-.5.6-1.3zm0-16.6h-.1q0-.8-.6-1.3q-.5-.6-1.3-.6q0 0-.2 0q-.2 0-.2 0v-.3h2.4zm6 16.6h.1q0 .8.5 1.3q.6.6 1.4.6q0 0 .1 0q.2 0 .3 0v.3h-2.4zm0-16.6v-2.2h2.4v.3q-.1 0-.3 0q-.1 0-.1 0q-.8 0-1.4.6q-.5.5-.5 1.3zm7.9-2.6l20.3 18l.4 3.8l-20.3-17.9zm.2 19.3v2.1h-2.5v-.3q0 0 .3 0q.3 0 .3 0q.8 0 1.3-.5q.5-.6.5-1.3zm6.1 0q0 .7.6 1.3q.5.5 1.2.5q.1 0 .3 0q.3 0 .3 0v.3h-2.5v-2.1zm-6.3-19.3l6.3 6.4l0 15h-6.2v-17.7q0-1.8-.2-2.8q-.2-.9-.2-.9zm20.6.4v17.6q0 1.2.1 2.1q.1.9.2 1.3q.1.4.1.4h-.3l-6.3-6.9v-14.5zm2.4 0v.3q0 0-.3 0q-.3 0-.3 0q-.7 0-1.3.5q-.5.6-.5 1.3h-.1v-2.1zm-11 0h2.5v2.1h-.1q0-.7-.5-1.3q-.6-.5-1.3-.5q0 0-.3 0q-.3 0-.3 0zm36.4 12.6v5q-.7.9-2.3 1.8q-1.6.9-3.7 1.4q-2.2.6-4.7.6q-3.6 0-6.2-1.3q-2.6-1.3-4.1-3.7q-1.4-2.5-1.4-6q0-3.3 1.4-5.8q1.4-2.4 4.1-3.7q2.7-1.3 6.5-1.3q1.6 0 3.3.2q1.8.2 3.2.5q1.5.3 2.4.7l-.3 5.7h-.3q-.6-2.3-1.7-3.5q-1.1-1.2-2.5-1.7q-1.3-.4-2.6-.4q-2.4 0-4 1.1q-1.5 1.2-2.2 3.3q-.7 2.2-.7 5.2q0 2.9.6 4.9q.6 2.1 1.9 3.2q1.2 1.1 3.2 1.1q1 0 1.9-.3q.9-.4 1.5-1.1q.6-.7.6-1.8l0-4.1q0-1.3-1.5-1.3h-.5v-.3h10.1v.3h-.5q-1.5 0-1.5 1.3zm22.8-12.6v21h-6.1v-21zm6.8 9.9v1.5h-6.9v-1.5zm1.6-9.9v1.5h-8.5v-1.5zm-1.6 11.3v3.5h-.3v-.1q0-1.4-.9-2.4q-.9-.9-2.3-.9v-.1zm0-4.8v3.5h-3.5v-.1q1.4 0 2.3-1q.9-.9.9-2.3v-.1zm1.6-5.1v4.2h-.3v-.2q0-1.8-1-2.8q-1-1.1-2.9-1.1v-.1zm0-1.9v.8l-3.7-.3q.7 0 1.4-.1q.8-.1 1.4-.2q.6-.1.9-.2zm-14.5 19.3v2.2h-2.4v-.3q0 0 .2 0q.2 0 .2 0q.8 0 1.4-.6q.5-.5.6-1.3zm0-16.6h0q-.1-.8-.6-1.3q-.6-.6-1.4-.6q0 0-.2 0q-.2 0-.2 0v-.3h2.4zm6 16.6h.1q0 .8.6 1.3q.5.6 1.3.6q0 0 .2 0q.2 0 .2 0v.3h-2.4zm20.8-18.8v21h-6.1v-21zm7.8 19.5l1.2 1.5h-9.1v-1.5zm2.5-5.5l-1.2 7h-6.5l1.1-1.5q1.5 0 2.7-.7q1.3-.6 2.2-1.8q.9-1.2 1.4-3zm-16.3 4.8v2.2h-2.4v-.3q0 0 .2 0q.2 0 .2 0q.7 0 1.3-.6q.6-.5.6-1.3zm0-16.6h-.1q0-.8-.6-1.3q-.6-.6-1.3-.6q0 0-.2 0q-.2 0-.2 0v-.3h2.4zm5.9 0v-2.2h2.4v.3q0 0-.2 0q-.1 0-.1 0q-.8 0-1.4.6q-.5.5-.6 1.3zm25.6-2.6q3.9 0 6.7 1.3q2.8 1.3 4.3 3.7q1.5 2.5 1.5 5.9q0 3.4-1.5 5.9q-1.5 2.4-4.3 3.7q-2.8 1.3-6.7 1.3q-3.8 0-6.6-1.3q-2.8-1.3-4.3-3.7q-1.5-2.4-1.5-5.9q0-3.4 1.5-5.9q1.5-2.4 4.3-3.7q2.8-1.3 6.6-1.3zm0 20.3q1.9 0 3.2-1.1q1.3-1.1 2-3.2q.7-2.1.7-5.1q0-3-.7-5.1q-.7-2.1-2-3.2q-1.3-1.1-3.2-1.1q-1.8 0-3.1 1.1q-1.3 1.1-2 3.2q-.7 2.1-.7 5.1q0 3 .7 5.1q.7 2.1 2 3.2q1.3 1.1 3.1 1.1zm15.4-19.7h6.4l4.3 10.7l-2.6 10.8zm16-.7l.7 3.3l-7.6 15.5q0 0-.2.5q-.2.5-.3 1.3q-.2.7-.3 1.6h-.2l-1.1-4.2l8.7-18zm0 .1l6.8 12.5l-2 9.6l-7.6-14.4zm11.2.6l-5.7 18.1q0 0-.1.6q-.2.5-.3 1.2q-.1.8 0 1.6h-.3l-1.2-3l5.3-18.5zm-2.9 2q.3-.9-.1-1.4q-.4-.5-1-.5h-.3v-.3h6.6v.3q0 0-.2 0q-.1 0-.1 0q-.7 0-1.5.4q-.8.5-1.1 1.5zm-17.1 0h-6.5q-.4-1-1.2-1.5q-.7-.4-1.4-.4q0 0-.1 0q-.2 0-.2 0v-.3h10.8v.3h-.3q-.5 0-1 .5q-.4.5-.1 1.4z" fill="#7C3AED" opacity=".55" filter="url(#tbBlur)"/><path d="m339.1 68.4h3.4q3 0 4.7.8q1.8.8 2.6 2.1q.9 1.3 1 2.8q.1 1.7-.5 3q-.6 1.4-1.7 2.3q-1 .9-2.4 1.3q-1.3.3-2.8.1q-1.5-.3-2.9-1.3v-.3q0 0 .3 0q.3-.1.8-.2q.4-.2.9-.6q.5-.3.9-1q.5-.7.7-1.7q.1-.5.2-.9q0-.5 0-.9q-.1-1.8-1-2.9q-1-1.1-2.7-1.1h-1.2q0 0-.1-.4q0-.3-.1-.7q-.1-.4-.1-.4zm.4 0v21h-6.1v-21zm-6.1 18.8v2.2h-2.3v-.3q0 0 .2 0q.1 0 .1 0q.8 0 1.4-.6q.5-.5.6-1.3zm0-16.6h0q0-.8-.6-1.3q-.6-.6-1.4-.6q0 0-.1 0q-.2 0-.2 0l0-.3h2.3zm6 16.6h.1q0 .8.6 1.3q.5.6 1.3.6q.1 0 .2 0q.2 0 .2 0v.3h-2.4zm22.2-19.5l10.4 21.5h-7.2l-5.8-13.8zm-6.5 19.5q-.2.6-.1 1q.2.5.5.7q.4.2.8.2h.3v.3h-6.7v-.3q0 0 .1 0q.1 0 .1 0q.7 0 1.5-.4q.7-.5 1.2-1.5zm6.5-19.5v4.7l-7.4 16.9h-2.4l7.8-17.1q.2-.3.4-.9q.3-.6.6-1.3q.2-.7.5-1.3q.2-.6.2-1zm2.5 15.2v1.5h-8.5v-1.5zm-.2 4.3h7.1q.5 1 1.2 1.5q.7.4 1.4.4q0 0 .1 0q.2 0 .2 0v.3h-11.4v-.3h.3q.6 0 1-.5q.5-.5.1-1.4zm19.9-18.8v21h-6.1v-21zm-6 18.8v2.2h-2.4v-.3q0 0 .2 0q.2 0 .2 0q.7 0 1.3-.6q.5-.5.6-1.3zm0-16.6h-.1q-.1-.8-.6-1.3q-.6-.6-1.3-.6q0 0-.2 0q-.2 0-.2 0v-.3h2.4zm5.9 16.6h.1q0 .8.6 1.3q.6.6 1.3.6q0 0 .2 0q.2 0 .2 0v.3h-2.4zm0-16.6v-2.2h2.4v.3q0 0-.2 0q-.2 0-.2 0q-.7 0-1.3.6q-.6.5-.6 1.3zm14.2-2.2h3.7q1.3 0 2.7.2q1.5.3 2.6.9q1.2.6 1.9 1.7q.7 1.1.7 2.9q0 1.1-.4 2.3q-.4 1.2-1.4 2.2q-1.1.9-3 1.2q1.3.3 2.2 1.2q1 .9 1.5 1.8q0 .1.3.5q.2.4.6 1q.4.6.8 1.3q.4.6.8 1.2q.7 1 1.2 1.4q.6.5 1.1.7q.5.2 1.2.2v.3h-3.7q-1.8 0-3.4-.2q-1.5-.2-2.7-.9q-1.2-.8-2.2-2.3q-.3-.6-.5-1.1q-.2-.5-.3-1.1q-.2-.5-.3-.9q-.1-.5-.2-.9q-.1-.5-.2-.8q-.3-1.1-.7-1.5q-.4-.4-.9-.6v-.3q.1 0 .3 0q.2 0 .2 0q.9 0 1.5-.3q.7-.4 1.1-1.3q.5-.8.6-2q.1-.3.1-.6q0-.3 0-.7q-.1-2.2-1.1-3.1q-1-.8-2.3-.8q-.2 0-.4 0q-.3 0-.5 0q-.3 0-.6 0q0 0 0-.4q-.1-.4-.2-.8q-.1-.4-.1-.4zm.4 0v21h-6.1v-21zm-6.1 18.8v2.2h-2.3v-.3q0 0 .2 0q.1 0 .1 0q.8 0 1.4-.6q.5-.5.6-1.3zm0-16.6h0q-.1-.8-.6-1.3q-.6-.6-1.4-.6q0 0-.1 0q-.2 0-.2 0v-.3h2.3zm6 16.6h.1q0 .8.6 1.3q.6.6 1.4.6q0 0 .2 0q.1 0 .1 0v.3h-2.4zm25.6-18.8v21h-6.2v-21zm-6.1 18.8v2.2h-2.4v-.3q0 0 .2 0q.2 0 .2 0q.8 0 1.3-.6q.6-.5.6-1.3zm0-16.6h-.1q0-.8-.6-1.3q-.5-.6-1.3-.6q0 0-.2 0q-.2 0-.2 0v-.3h2.4zm6 16.6h.1q0 .8.5 1.3q.6.6 1.4.6q0 0 .1 0q.2 0 .3 0v.3h-2.4zm0-16.6v-2.2h2.4v.3q-.1 0-.3 0q-.1 0-.1 0q-.8 0-1.4.6q-.5.5-.5 1.3zm7.9-2.6l20.3 18l.4 3.8l-20.3-17.9zm.2 19.3v2.1h-2.5v-.3q0 0 .3 0q.3 0 .3 0q.8 0 1.3-.5q.5-.6.5-1.3zm6.1 0q0 .7.6 1.3q.5.5 1.2.5q.1 0 .3 0q.3 0 .3 0v.3h-2.5v-2.1zm-6.3-19.3l6.3 6.4l0 15h-6.2v-17.7q0-1.8-.2-2.8q-.2-.9-.2-.9zm20.6.4v17.6q0 1.2.1 2.1q.1.9.2 1.3q.1.4.1.4h-.3l-6.3-6.9v-14.5zm2.4 0v.3q0 0-.3 0q-.3 0-.3 0q-.7 0-1.3.5q-.5.6-.5 1.3h-.1v-2.1zm-11 0h2.5v2.1h-.1q0-.7-.5-1.3q-.6-.5-1.3-.5q0 0-.3 0q-.3 0-.3 0zm36.4 12.6v5q-.7.9-2.3 1.8q-1.6.9-3.7 1.4q-2.2.6-4.7.6q-3.6 0-6.2-1.3q-2.6-1.3-4.1-3.7q-1.4-2.5-1.4-6q0-3.3 1.4-5.8q1.4-2.4 4.1-3.7q2.7-1.3 6.5-1.3q1.6 0 3.3.2q1.8.2 3.2.5q1.5.3 2.4.7l-.3 5.7h-.3q-.6-2.3-1.7-3.5q-1.1-1.2-2.5-1.7q-1.3-.4-2.6-.4q-2.4 0-4 1.1q-1.5 1.2-2.2 3.3q-.7 2.2-.7 5.2q0 2.9.6 4.9q.6 2.1 1.9 3.2q1.2 1.1 3.2 1.1q1 0 1.9-.3q.9-.4 1.5-1.1q.6-.7.6-1.8l0-4.1q0-1.3-1.5-1.3h-.5v-.3h10.1v.3h-.5q-1.5 0-1.5 1.3zm22.8-12.6v21h-6.1v-21zm6.8 9.9v1.5h-6.9v-1.5zm1.6-9.9v1.5h-8.5v-1.5zm-1.6 11.3v3.5h-.3v-.1q0-1.4-.9-2.4q-.9-.9-2.3-.9v-.1zm0-4.8v3.5h-3.5v-.1q1.4 0 2.3-1q.9-.9.9-2.3v-.1zm1.6-5.1v4.2h-.3v-.2q0-1.8-1-2.8q-1-1.1-2.9-1.1v-.1zm0-1.9v.8l-3.7-.3q.7 0 1.4-.1q.8-.1 1.4-.2q.6-.1.9-.2zm-14.5 19.3v2.2h-2.4v-.3q0 0 .2 0q.2 0 .2 0q.8 0 1.4-.6q.5-.5.6-1.3zm0-16.6h0q-.1-.8-.6-1.3q-.6-.6-1.4-.6q0 0-.2 0q-.2 0-.2 0v-.3h2.4zm6 16.6h.1q0 .8.6 1.3q.5.6 1.3.6q0 0 .2 0q.2 0 .2 0v.3h-2.4zm20.8-18.8v21h-6.1v-21zm7.8 19.5l1.2 1.5h-9.1v-1.5zm2.5-5.5l-1.2 7h-6.5l1.1-1.5q1.5 0 2.7-.7q1.3-.6 2.2-1.8q.9-1.2 1.4-3zm-16.3 4.8v2.2h-2.4v-.3q0 0 .2 0q.2 0 .2 0q.7 0 1.3-.6q.6-.5.6-1.3zm0-16.6h-.1q0-.8-.6-1.3q-.6-.6-1.3-.6q0 0-.2 0q-.2 0-.2 0v-.3h2.4zm5.9 0v-2.2h2.4v.3q0 0-.2 0q-.1 0-.1 0q-.8 0-1.4.6q-.5.5-.6 1.3zm25.6-2.6q3.9 0 6.7 1.3q2.8 1.3 4.3 3.7q1.5 2.5 1.5 5.9q0 3.4-1.5 5.9q-1.5 2.4-4.3 3.7q-2.8 1.3-6.7 1.3q-3.8 0-6.6-1.3q-2.8-1.3-4.3-3.7q-1.5-2.4-1.5-5.9q0-3.4 1.5-5.9q1.5-2.4 4.3-3.7q2.8-1.3 6.6-1.3zm0 20.3q1.9 0 3.2-1.1q1.3-1.1 2-3.2q.7-2.1.7-5.1q0-3-.7-5.1q-.7-2.1-2-3.2q-1.3-1.1-3.2-1.1q-1.8 0-3.1 1.1q-1.3 1.1-2 3.2q-.7 2.1-.7 5.1q0 3 .7 5.1q.7 2.1 2 3.2q1.3 1.1 3.1 1.1zm15.4-19.7h6.4l4.3 10.7l-2.6 10.8zm16-.7l.7 3.3l-7.6 15.5q0 0-.2.5q-.2.5-.3 1.3q-.2.7-.3 1.6h-.2l-1.1-4.2l8.7-18zm0 .1l6.8 12.5l-2 9.6l-7.6-14.4zm11.2.6l-5.7 18.1q0 0-.1.6q-.2.5-.3 1.2q-.1.8 0 1.6h-.3l-1.2-3l5.3-18.5zm-2.9 2q.3-.9-.1-1.4q-.4-.5-1-.5h-.3v-.3h6.6v.3q0 0-.2 0q-.1 0-.1 0q-.7 0-1.5.4q-.8.5-1.1 1.5zm-17.1 0h-6.5q-.4-1-1.2-1.5q-.7-.4-1.4-.4q0 0-.1 0q-.2 0-.2 0v-.3h10.8v.3h-.3q-.5 0-1 .5q-.4.5-.1 1.4z" fill="url(#fqTbIce)"/><rect x="330" y="101.4" width="322.7" height="1.6" fill="url(#fqTbLn)"/><path d="M330 99L333.2 102.2L330 105.4L326.8 102.2Z" fill="#8B5CF6"/><g style="animation:fqStep 6s 0s infinite;opacity:.35"><rect x="330" y="138" width="196" height="92" rx="12" fill="#180C28" stroke="#8B5CF6" stroke-opacity=".8"/><path transform="translate(364 184) scale(.8)" d="M-15 -15L-4 -15L-4 -4L-15 -4ZM4 -15L15 -15L15 -4L4 -4ZM-15 4L-4 4L-4 15L-15 15ZM-11 -11L-8 -11L-8 -8L-11 -8ZM8 -11L11 -11L11 -8L8 -8ZM-11 8L-8 8L-8 11L-11 11ZM4 4L8 4L8 8L4 8ZM11 4L15 4L15 8L11 8ZM4 11L8 11L8 15L4 15ZM11 11L15 11L15 15L11 15Z" fill="none" stroke="#8B5CF6" stroke-width="2" stroke-linecap="round" stroke-linejoin="round"/><g transform="translate(392 176) scale(.015)" fill="#F5F3FF"><use href="#g5_80" x="0"/><use href="#g5_81" x="784"/><use href="#g5_31" x="2104"/><use href="#g5_d" x="2873"/><use href="#g5_4" x="3655"/><use href="#g5_23" x="4432"/></g><g transform="translate(392 198) scale(.0115)" fill="#B9AED6"><use href="#g3_2f" x="0"/><use href="#g3_30" x="676"/><use href="#g3_b5" x="1327"/><use href="#g3_46" x="1729"/><use href="#g3_3e" x="2307"/><use href="#g3_6d" x="2858"/><use href="#g3_4b" x="3370"/><use href="#g3_49" x="3931"/><use href="#g3_49" x="4755"/><use href="#g3_4b" x="5335"/><use href="#g3_75" x="5886"/><use href="#g3_53" x="6368"/><use href="#g3_47" x="6612"/><use href="#g3_4b" x="7146"/><use href="#g3_69" x="7951"/><use href="#g3_3e" x="8531"/><use href="#g3_53" x="9082"/><use href="#g3_6c" x="9326"/><use href="#g3_53" x="9711"/><use href="#g3_5f" x="9955"/><use href="#g3_51" x="10523"/></g></g><path d="M530 184L542 184" stroke="#8B5CF6" stroke-width="2"/><g style="animation:fqStep 6s 2s infinite;opacity:.35"><rect x="544" y="138" width="196" height="92" rx="12" fill="#180C28" stroke="#8B5CF6" stroke-opacity=".8"/><path transform="translate(578 184) scale(.8)" d="M0 -5A5 5 0 1 0 .01 -5ZM0 -16L0 -5M0 5L0 16M-14 -8L-4 -2M4 2L14 8M-14 8L-4 2M4 -2L14 -8" fill="none" stroke="#8B5CF6" stroke-width="2" stroke-linecap="round" stroke-linejoin="round"/><g transform="translate(606 176) scale(.015)" fill="#F5F3FF"><use href="#g5_80" x="0"/><use href="#g5_82" x="784"/><use href="#g5_2d" x="2296"/><use href="#g5_4" x="2999"/><use href="#g5_19" x="3776"/><use href="#g5_30" x="4182"/></g><g transform="translate(606 198) scale(.0115)" fill="#B9AED6"><use href="#g3_2d" x="0"/><use href="#g3_82" x="622"/><use href="#g3_2d" x="1172"/><use href="#g3_61" x="2038"/><use href="#g3_75" x="2598"/><use href="#g3_4b" x="3070"/><use href="#g3_6c" x="3631"/><use href="#g3_39" x="4260"/><use href="#g3_53" x="5103"/><use href="#g3_b5" x="5347"/><use href="#g3_16" x="5749"/><use href="#g3_53" x="6301"/><use href="#g3_ad" x="6789"/><use href="#g3_20" x="7498"/><use href="#g3_4" x="8035"/><use href="#g3_23" x="8655"/></g></g><path d="M744 184L756 184" stroke="#8B5CF6" stroke-width="2"/><g style="animation:fqStep 6s 4s infinite;opacity:.35"><rect x="758" y="138" width="196" height="92" rx="12" fill="#180C28" stroke="#8B5CF6" stroke-opacity=".8"/><path transform="translate(792 184) scale(.8)" d="M-15 0L15 -12L7 12L2 3ZM2 3L15 -12" fill="none" stroke="#8B5CF6" stroke-width="2" stroke-linecap="round" stroke-linejoin="round"/><g transform="translate(820 176) scale(.015)" fill="#F5F3FF"><use href="#g5_80" x="0"/><use href="#g5_83" x="784"/><use href="#g5_32" x="2325"/><use href="#g5_30" x="3041"/><use href="#g5_4" x="3848"/><use href="#g5_23" x="4625"/><use href="#g5_31" x="5454"/><use href="#g5_16" x="6223"/><use href="#g5_11" x="6931"/><use href="#g5_30" x="7669"/></g><g transform="translate(820 198) scale(.0115)" fill="#B9AED6"><use href="#g3_6d" x="0"/><use href="#g3_4b" x="512"/><use href="#g3_5f" x="1073"/><use href="#g3_49" x="1641"/><use href="#g3_s2194" x="2465"/><use href="#g3_6c" x="3337"/><use href="#g3_4b" x="3697"/><use href="#g3_47" x="4258"/><use href="#g3_4b" x="4792"/><use href="#g3_53" x="5353"/><use href="#g3_75" x="5597"/><use href="#g3_4b" x="6069"/><use href="#g3_a1" x="6620"/><use href="#g3_5f" x="7070"/><use href="#g3_61" x="7638"/><use href="#g3_47" x="8452"/><use href="#g3_3e" x="8986"/><use href="#g3_46" x="9537"/><use href="#g3_5c" x="10115"/><use href="#g3_4b" x="10349"/></g></g><g transform="translate(330 262) scale(.011)" fill="#8B5CF6"><use href="#g5_32" x="0"/><use href="#g5_11" x="896"/><use href="#g5_d" x="1814"/><use href="#g5_18" x="2781"/><use href="#g5_23" x="3791"/><use href="#g5_25" x="4800"/><use href="#g5_20" x="5812"/><use href="#g5_25" x="6670"/><use href="#g5_17" x="7682"/><use href="#g5_3b" x="8650"/><use href="#g5_f" x="10173"/><use href="#g5_19" x="11173"/><use href="#g5_30" x="11759"/><use href="#g5_11" x="12746"/><use href="#g5_d" x="13664"/><use href="#g5_32" x="14626"/><use href="#g5_19" x="15522"/><use href="#g5_25" x="16108"/><use href="#g5_23" x="17120"/></g><rect x="330" y="274" width="64.1" height="30" rx="15" fill="#1A0D2B" stroke="#4A1C85"/><g transform="translate(341 293.86) scale(.0135)" fill="#F5F3FF"><use href="#g4_16" x="0"/><use href="#g4_5c" x="560"/><use href="#g4_70" x="803"/><use href="#g4_6f" x="1378"/><use href="#g4_6f" x="1776"/><use href="#g4_4b" x="2159"/><use href="#g4_6c" x="2727"/></g><rect x="402.1" y="274" width="49.3" height="30" rx="15" fill="#1A0D2B" stroke="#4A1C85"/><g transform="translate(413.12 293.86) scale(.0135)" fill="#F5F3FF"><use href="#g4_f" x="0"/><use href="#g4_3e" x="672"/><use href="#g4_6c" x="1231"/><use href="#g4_6f" x="1624"/></g><rect x="459.4" y="274" width="196.7" height="30" rx="15" fill="#1A0D2B" stroke="#4A1C85"/><g transform="translate(470.42 293.86) scale(.0135)" fill="#F5F3FF"><use href="#g4_d" x="0"/><use href="#g4_6c" x="639"/><use href="#g4_61" x="1007"/><use href="#g4_6d" x="1584"/><use href="#g4_6d" x="2104"/><use href="#g4_b5" x="2624"/><use href="#g4_69" x="3036"/><use href="#g4_5c" x="3623"/><use href="#g4_3e" x="3866"/><use href="#g4_6f" x="4415"/><use href="#g4_50" x="4813"/><use href="#g4_61" x="5177"/><use href="#g4_6c" x="5754"/><use href="#g4_5e" x="6147"/><use href="#g4_3e" x="7245"/><use href="#g4_6c" x="7804"/><use href="#g4_47" x="8172"/><use href="#g4_52" x="8714"/><use href="#g4_53" x="9292"/><use href="#g4_6f" x="9545"/><use href="#g4_4b" x="9928"/><use href="#g4_47" x="10496"/><use href="#g4_6f" x="11038"/><use href="#g4_70" x="11431"/><use href="#g4_6c" x="12006"/><use href="#g4_4b" x="12374"/></g><rect x="664.1" y="274" width="145.3" height="30" rx="15" fill="#1A0D2B" stroke="#4A1C85"/><g transform="translate(675.13 293.86) scale(.0135)" fill="#F5F3FF"><use href="#g4_2d" x="0"/><use href="#g4_82" x="630"/><use href="#g4_2d" x="1188"/><use href="#g4_ad" x="2071"/><use href="#g4_39" x="2808"/><use href="#g4_53" x="3656"/><use href="#g4_b5" x="3909"/><use href="#g4_16" x="4321"/><use href="#g4_53" x="4881"/><use href="#g4_6f" x="5387"/><use href="#g4_6c" x="5785"/><use href="#g4_3e" x="6153"/><use href="#g4_5f" x="6712"/><use href="#g4_6d" x="7288"/><use href="#g4_50" x="7808"/><use href="#g4_4b" x="8172"/><use href="#g4_6c" x="8740"/></g><rect x="817.4" y="274" width="130.5" height="30" rx="15" fill="#1A0D2B" stroke="#4A1C85"/><g transform="translate(828.43 293.86) scale(.0135)" fill="#F5F3FF"><use href="#g4_2f" x="0"/><use href="#g4_30" x="684"/><use href="#g4_b5" x="1343"/><use href="#g4_46" x="1755"/><use href="#g4_3e" x="2340"/><use href="#g4_6d" x="2899"/><use href="#g4_4b" x="3419"/><use href="#g4_49" x="3987"/><use href="#g4_69" x="4827"/><use href="#g4_3e" x="5414"/><use href="#g4_53" x="5973"/><use href="#g4_6c" x="6226"/><use href="#g4_53" x="6619"/><use href="#g4_5f" x="6872"/><use href="#g4_51" x="7448"/></g></g><rect x=".75" y=".75" width="998.5" height="338.5" rx="19.5" fill="none" stroke="url(#fqBd)" stroke-width="1.5" style="animation:hudPulse 5s ease-in-out infinite"/><rect x="6" y="6" width="988" height="328" rx="15" fill="none" stroke="#6D28D9" stroke-opacity=".12"/><path d="M12 32V12H32M968 12H988V32M988 308V328H968M32 328H12V308" fill="none" stroke="#8B5CF6" stroke-width="2" stroke-linecap="square"/></svg>