<svg xmlns="http://www.w3.org/2000/svg" viewBox="0 0 1000 230" width="1000" height="230" role="img" aria-labelledby="t d"><title id="t">Passage — the void walker</title><desc id="d">Transition: the vampire walks out of the violet fog along a castle corridor toward The Portal Chamber.</desc><style>@keyframes vwFogA{from{transform:translateX(0)}to{transform:translateX(-1000px)}}@keyframes vwStep{0%,100%{transform:translateY(0)}50%{transform:translateY(-2px)}}@keyframes mvAuraPulse{0%,100%{opacity:.65;transform:scale(.97)}50%{opacity:1;transform:scale(1.03)}}@keyframes mvEye{0%,100%{opacity:.55}50%{opacity:1}}@keyframes mvGem{0%,100%{opacity:.45}50%{opacity:1}}@keyframes vwSm{0%,100%{transform:translateX(-6px) scaleX(1)}50%{transform:translateX(6px) scaleX(1.06)}}@keyframes vwFogB{from{transform:translateX(0)}to{transform:translateX(-1000px)}}@media (prefers-reduced-motion:reduce){*{animation:none!important}.rv{opacity:1!important}}</style><defs><clipPath id="vwClip"><rect width="1000" height="230" rx="18"/></clipPath><radialGradient id="vwF" cx=".5" cy=".5" r=".5"><stop offset="0" stop-color="#C4B5FD" stop-opacity=".55"/><stop offset=".18" stop-color="#8B5CF6" stop-opacity=".35"/><stop offset=".55" stop-color="#7C3AED" stop-opacity=".1"/><stop offset="1" stop-color="#7C3AED" stop-opacity="0"/></radialGradient><linearGradient id="vwL" x1="0" y1="0" x2="0" y2="1"><stop offset="0" stop-color="#12091C" stop-opacity="0"/><stop offset="1" stop-color="#020203" stop-opacity=".95"/></linearGradient><radialGradient id="vwFogAG" cx=".5" cy=".5" r=".5"><stop offset="0" stop-color="#9C7FD6" stop-opacity=".22"/><stop offset="1" stop-color="#9C7FD6" stop-opacity="0"/></radialGradient><radialGradient id="mvAura120" cx=".5" cy=".5" r=".5"><stop offset="0" stop-color="#7C3AED" stop-opacity=".408"/><stop offset=".45" stop-color="#452184" stop-opacity=".168"/><stop offset="1" stop-color="#452184" stop-opacity="0"/></radialGradient><filter id="mvSoft" x="-30%" y="-30%" width="160%" height="160%"><feGaussianBlur stdDeviation="1.1"/></filter><filter id="mvSoft2" x="-40%" y="-40%" width="180%" height="180%"><feGaussianBlur stdDeviation="2.4"/></filter><filter id="mvGlow" x="-100%" y="-100%" width="300%" height="300%"><feGaussianBlur stdDeviation="1.6" result="b"/><feMerge><feMergeNode in="b"/><feMergeNode in="SourceGraphic"/></feMerge></filter><linearGradient id="mvSleeveL" x1="0" y1="0" x2="1" y2="0"><stop offset="0" stop-color="#2A2238"/><stop offset=".28" stop-color="#130F1B"/><stop offset=".7" stop-color="#08070C"/><stop offset="1" stop-color="#040306"/></linearGradient><linearGradient id="mvSleeveR" x1="0" y1="0" x2="1" y2="0"><stop offset="0" stop-color="#16121E"/><stop offset=".4" stop-color="#09080D"/><stop offset="1" stop-color="#030204"/></linearGradient><linearGradient id="mvLining" x1="0" y1="0" x2="0" y2="1"><stop offset="0" stop-color="#241137"/><stop offset=".45" stop-color="#12091C"/><stop offset="1" stop-color="#050309"/></linearGradient><linearGradient id="mvLinSheen" x1="0" y1="0" x2="1" y2="0"><stop offset="0" stop-color="#6D28D9" stop-opacity="0"/><stop offset=".5" stop-color="#6D28D9" stop-opacity=".22"/><stop offset="1" stop-color="#6D28D9" stop-opacity="0"/></linearGradient><linearGradient id="mvTrL" x1="0" y1="0" x2="1" y2="0"><stop offset="0" stop-color="#1C1726"/><stop offset=".4" stop-color="#0B0910"/><stop offset="1" stop-color="#050407"/></linearGradient><linearGradient id="mvBoot" x1="0" y1="0" x2="1" y2="0"><stop offset="0" stop-color="#2A2436"/><stop offset=".25" stop-color="#0B0910"/><stop offset="1" stop-color="#030204"/></linearGradient><linearGradient id="mvTrR" x1="0" y1="0" x2="1" y2="0"><stop offset="0" stop-color="#0E0B14"/><stop offset="1" stop-color="#040306"/></linearGradient><linearGradient id="mvVest" x1="0" y1="0" x2="1" y2="0"><stop offset="0" stop-color="#1B1524"/><stop offset=".5" stop-color="#0C0A11"/><stop offset="1" stop-color="#060509"/></linearGradient><linearGradient id="mvSilk" x1="0" y1="0" x2="1" y2="1"><stop offset="0" stop-color="#3B1C66"/><stop offset=".45" stop-color="#1E0F33"/><stop offset="1" stop-color="#07040C"/></linearGradient><radialGradient id="mvGem" cx=".4" cy=".35" r=".7"><stop offset="0" stop-color="#EFEAFF"/><stop offset=".25" stop-color="#C4B5FD"/><stop offset=".6" stop-color="#7C3AED"/><stop offset="1" stop-color="#2A0E5C"/></radialGradient><radialGradient id="mvGemGl" cx=".5" cy=".5" r=".5"><stop offset="0" stop-color="#8B5CF6" stop-opacity=".8"/><stop offset="1" stop-color="#8B5CF6" stop-opacity="0"/></radialGradient><pattern id="mvBrocade" width="6" height="6" patternUnits="userSpaceOnUse"><path d="M3 .6L5.4 3L3 5.4L.6 3Z" fill="none" stroke="#1E1829" stroke-width=".45"/></pattern><linearGradient id="mvCoatL" x1="0" y1="0" x2="1" y2="0"><stop offset="0" stop-color="#2B2338"/><stop offset=".22" stop-color="#15111C"/><stop offset=".6" stop-color="#0A0810"/><stop offset="1" stop-color="#060509"/></linearGradient><linearGradient id="mvCoatR" x1="0" y1="0" x2="1" y2="0"><stop offset="0" stop-color="#0B0910"/><stop offset=".6" stop-color="#060509"/><stop offset="1" stop-color="#020203"/></linearGradient><linearGradient id="mvLapel" x1="0" y1="0" x2="1" y2="1"><stop offset="0" stop-color="#352B45"/><stop offset=".5" stop-color="#15101E"/><stop offset="1" stop-color="#07060B"/></linearGradient><linearGradient id="mvLinEdge" x1="0" y1="0" x2="0" y2="1"><stop offset="0" stop-color="#4C2A80"/><stop offset="1" stop-color="#1E0F33"/></linearGradient><linearGradient id="mvCollar" x1="0" y1="0" x2="0" y2="1"><stop offset="0" stop-color="#3A2E4E"/><stop offset=".45" stop-color="#15101E"/><stop offset="1" stop-color="#060509"/></linearGradient><linearGradient id="mvCollarR" x1="0" y1="0" x2="0" y2="1"><stop offset="0" stop-color="#1E1829"/><stop offset=".5" stop-color="#0C0A11"/><stop offset="1" stop-color="#040306"/></linearGradient><linearGradient id="mvSkin" x1="0" y1="0" x2="1" y2="0"><stop offset="0" stop-color="#E6DFEF"/><stop offset=".42" stop-color="#CDC3DD"/><stop offset=".78" stop-color="#9A8DB2"/><stop offset="1" stop-color="#6E6188"/></linearGradient><linearGradient id="mvNeck" x1="0" y1="0" x2="1" y2="1"><stop offset="0" stop-color="#A99DBE"/><stop offset=".6" stop-color="#5E5270"/><stop offset="1" stop-color="#3B3149"/></linearGradient><linearGradient id="mvLock" x1="0" y1="0" x2="1" y2="1"><stop offset="0" stop-color="#2A2238"/><stop offset=".35" stop-color="#110D18"/><stop offset="1" stop-color="#040306"/></linearGradient><linearGradient id="mvSheen" x1="0" y1="0" x2="1" y2="0"><stop offset="0" stop-color="#8E80B0" stop-opacity="0"/><stop offset=".45" stop-color="#8E80B0" stop-opacity=".55"/><stop offset="1" stop-color="#8E80B0" stop-opacity="0"/></linearGradient><radialGradient id="mvIris" cx=".5" cy=".5" r=".5"><stop offset="0" stop-color="#F1ECFF"/><stop offset=".35" stop-color="#C4B5FD"/><stop offset=".7" stop-color="#8B5CF6"/><stop offset="1" stop-color="#7C3AED"/></radialGradient><radialGradient id="mvEyeG" cx=".5" cy=".5" r=".5"><stop offset="0" stop-color="#EFEAFF" stop-opacity=".9"/><stop offset=".3" stop-color="#8B5CF6" stop-opacity=".75"/><stop offset="1" stop-color="#8B5CF6" stop-opacity="0"/></radialGradient><g id="mvHcal10"><path d="M-7.4-6L7.4-6L8.8 15L-8.8 15Z" fill="url(#mvNeck)"/><path d="M-7.4-3Q0 3 7.4-3L8 4.6Q0 9.6-8 4.6Z" fill="#2B2238" opacity=".85"/><path d="M18.5-35.5C20-37.2 21.4-38.8 22.6-40.4C23.3-36.8 23-32 22-27.8C21.4-25 20.2-23 18.7-22.4Z" fill="#8C7FA5"/><path d="M18.5-35.5C20-37.2 21.4-38.8 22.6-40.4C23.3-36.8 23-32 22-27.8C21.4-25 20.2-23 18.7-22.4Z" transform="scale(-1 1)" fill="#C9BFDA"/><path d="M20.2-33C21.2-34.2 22-35.4 22.4-36.4C22.6-33 22.2-29.6 21-26.6Z" fill="#5E5270" opacity=".7"/><path d="M-20.2-33C-21.2-34.2-22-35.4-22.4-36.4C-22.6-33-22.2-29.6-21-26.6Z" fill="#8C7FA5" opacity=".6"/><path d="M0 .6C2.6 .6 5 .1 6.6-1C9.4-3 12.8-7.2 15.2-11.8C16.2-13.8 16.8-15.6 17.2-17.6C17.9-22 18.6-26.5 18.9-31C19.2-37 18.6-43 16.8-47.5C14.4-53.6 8.2-57 0-57C-8.2-57-14.4-53.6-16.8-47.5C-18.6-43-19.2-37-18.9-31C-18.6-26.5-17.9-22-17.2-17.6C-16.8-15.6-16.2-13.8-15.2-11.8C-12.8-7.2-9.4-3-6.6-1C-5 .1-2.6 .6 0 .6Z" fill="url(#mvSkin)"/><g filter="url(#mvSoft2)"><ellipse cx="-7.6" cy="-28.2" rx="6.8" ry="4.4" fill="#3E3252" opacity=".6"/><ellipse cx="7.6" cy="-28.2" rx="6.8" ry="4.4" fill="#2A2139" opacity=".75"/><ellipse cx="-7.2" cy="-24.2" rx="4.6" ry="1.6" fill="#4D3F66" opacity=".35"/><ellipse cx="7.2" cy="-24.2" rx="4.6" ry="1.6" fill="#3B2F52" opacity=".45"/><path d="M9-23.5C12.8-22 15.8-19.5 16.8-16C14.8-12.6 12.6-10.4 10.4-9.6C11-14 10.6-19 9-23.5Z" fill="#3E3252" opacity=".8"/><path d="M-9-23.5C-12.8-22-15.8-19.5-16.8-16C-14.8-12.6-12.6-10.4-10.4-9.6C-11-14-10.6-19-9-23.5Z" fill="#6E6188" opacity=".42"/><path d="M12-46C15.5-40 17.4-33 17.6-26C17.2-20 16.4-16 15-12.5L17.2-17.6C17.9-22 18.6-26.5 18.9-31C19.2-37 18.6-43 16.8-47.5Z" fill="#2E2440" opacity=".8"/><path d="M-16.4-44C-18.2-40-18.6-36-18.4-33L-17-35C-16.8-38-16.4-41-15.6-43.6Z" fill="#54476C" opacity=".35"/><path d="M1.1-31L2.9-17.2C3.2-15.6 2.3-14.3.8-14.2L.4-17.8Z" fill="#3E3252" opacity=".75"/><ellipse cx="0" cy="-13.4" rx="3.6" ry="1.1" fill="#2E2440" opacity=".6"/><path d="M-15.2-11.8C-12.8-7.2-9.4-3-6.6-1C-5 .1-2.6 .6 0 .6C2.6 .6 5 .1 6.6-1C9.4-3 12.8-7.2 15.2-11.8C13-6.4 8.4-.6 0 1.8C-8.4-.6-13-6.4-15.2-11.8Z" fill="#2E2440" opacity=".7"/><ellipse cx="0" cy="-4.4" rx="3.8" ry="1.4" fill="#4D3F66" opacity=".45"/></g><g filter="url(#mvSoft)" fill="#F7F4FC"><ellipse cx="-5" cy="-45.4" rx="8.8" ry="4.2" opacity=".32"/><path d="M-15.6-27.6C-13.4-25.2-11-24.6-8.6-24.8C-11-23.6-13.6-23.8-16-25.4Z" opacity=".38"/><ellipse cx="-1.6" cy="-2.8" rx="3" ry="1.3" opacity=".26"/><ellipse cx="-1.4" cy="-7.2" rx="1.8" ry=".7" opacity=".3"/></g><path d="M-.5-30.5L-.9-18.4" stroke="#F7F4FC" stroke-width=".85" stroke-linecap="round" opacity=".5"/><path d="M-3.4-13.9Q-2.2-12.7-.9-13.3M3.4-13.9Q2.2-12.7.9-13.3" stroke="#2E2440" stroke-width=".75" fill="none" stroke-linecap="round"/><path d="M-2.8 -31.4C-6 -32.6 -9.6 -33.8 -13.2 -33.4L-13 -32.5C-9.4 -32.6 -6 -31.4 -3 -30.2Z" fill="#0E0914"/><path d="M2.8 -31.4C6 -32.6 9.6 -33.8 13.2 -33.4L13 -32.5C9.4 -32.6 6 -31.4 3 -30.2Z" fill="#0E0914"/><path d="M-3.2 -27.4C-5.4 -29.4 -9.8 -29.7 -12.2 -28.3C-10 -26.2 -5.8 -25.6 -3.2 -27.4Z" fill="#150E1D"/><circle cx="-7.8" cy="-27.6" r="1.75" fill="url(#mvIris)"/><circle cx="-7.8" cy="-27.6" r=".55" fill="#120C1A"/><circle cx="-8.1" cy="-28.2" r=".35" fill="#FFFFFF" opacity=".9"/><path d="M-3 -27.3C-5.4 -29.6 -10 -29.9 -12.4 -28.2" stroke="#09060D" stroke-width="1.35" fill="none" stroke-linecap="round"/><path d="M-4.2 -25.9Q-7.6 -25.1 -11.2 -26.4" stroke="#54476C" stroke-width=".45" fill="none"/><path d="M3.2 -27.4C5.4 -29.4 9.8 -29.7 12.2 -28.3C10 -26.2 5.8 -25.6 3.2 -27.4Z" fill="#150E1D"/><circle cx="7.8" cy="-27.6" r="1.75" fill="url(#mvIris)"/><circle cx="7.8" cy="-27.6" r=".55" fill="#120C1A"/><circle cx="7.1" cy="-28.2" r=".35" fill="#FFFFFF" opacity=".9"/><path d="M3 -27.3C5.4 -29.6 10 -29.9 12.4 -28.2" stroke="#09060D" stroke-width="1.35" fill="none" stroke-linecap="round"/><path d="M4.2 -25.9Q7.6 -25.1 11.2 -26.4" stroke="#54476C" stroke-width=".45" fill="none"/><path d="M-5.6-8.6C-3.2-9.7-1-9.3 0-9C1-9.3 3.2-9.8 5.8 -8.7C3.2-8.3 1-8.2 0-8.1C-1-8.2-3.2-8.2-5.6-8.6Z" fill="#43334F"/><path d="M-4.6-8C-2.6-5.9 2.6-5.9 4.8-8C2.6-7.2-2.6-7.2-4.6-8Z" fill="#6E5E84"/><path d="M-5.6-8.6C-3-8.1 3-8.1 5.8 -8.7" stroke="#1E1528" stroke-width=".75" fill="none" stroke-linecap="round"/><path d="M-17-38.6C-14-47-6-50.6 2-50.4C9-50.2 14.6-46.6 17.2-38.6C13-44.6 7-47 0-47C-7-47-13.6-44.6-17-38.6Z" fill="#1E1728" opacity=".8" filter="url(#mvSoft)"/><path d="M-12.1 -63.7Q-16.6 -60.3 -21.2 -60.6Q-16.4 -57 -11.9 -58.3Z" fill="#050407"/><path d="M-2.5 -67.4Q-9 -65.3 -14.6 -67.4Q-9.6 -62.4 -3.5 -62.6Z" fill="#050407"/><path d="M6.8 -67.9Q.7 -66.6 -3.8 -69.6Q-.3 -64 5.2 -63.7Z" fill="#050407"/><path d="M16 -59.5Q19.4 -60.5 20.6 -64.8Q18.2 -62.3 14 -62.5Z" fill="#050407"/><path d="M-18.9 -53.7Q-20 -49.6 -22.8 -47.6Q-18.3 -47.6 -16.1 -50.3Z" fill="#050407"/><path d="M-7.7 -66.1Q-13.6 -64 -19 -65.5Q-13.9 -61.5 -8.3 -61.9Z" fill="#050407"/><path d="M12.2 -65.5Q6.4 -66.3 3 -70.2Q5 -64.5 9.8 -62.5Z" fill="#050407"/><path d="M19.7 -53.6Q22.5 -54.1 24 -57.4Q21.7 -55.8 18.3 -56.4Z" fill="#050407"/><path d="M-20.8 -45Q-21.3 -41.1 -23.4 -38.4Q-19.6 -39.9 -18 -43Z" fill="#050407"/><path d="M-18.9-31C-20.8-37-21.2-44.6-19.6-51.4C-17.6-58.6-11.6-64.2-4-66.4C3.4-68.2 11.4-66.8 16.8-62.6C20.8-59.4 22.6-53.8 22.2-47.6C21.9-41.4 20.9-35.6 18.9-31L17.2-38.4C15.8-43.4 12.4-47.6 7.2-49.8C1.6-51.8-4.8-51.4-9.8-49.2C-13.8-47.2-16.4-43.4-17.1-38.4Z" fill="url(#mvLock)"/><path d="M-16-50C-12-60-2-64.6 8-63.6" stroke="url(#mvSheen)" stroke-width="4.2" fill="none" stroke-linecap="round" filter="url(#mvSoft)"/><path d="M12 -58Q2 -64.2 -8 -64.4" stroke="#2A2139" stroke-width=".45" fill="none" stroke-linecap="round" opacity=".9"/><path d="M14 -54Q1 -60.9 -12 -61" stroke="#43365C" stroke-width=".67" fill="none" stroke-linecap="round" opacity=".9"/><path d="M15 -50Q-.3 -55.7 -15.6 -55" stroke="#2A2139" stroke-width=".89" fill="none" stroke-linecap="round" opacity=".9"/><path d="M17 -46Q-.5 -49.1 -18 -47" stroke="#43365C" stroke-width=".45" fill="none" stroke-linecap="round" opacity=".9"/><path d="M18.6 -52Q19 -45.8 19.4 -42" stroke="#2A2139" stroke-width=".67" fill="none" stroke-linecap="round" opacity=".9"/><path d="M10 -62.6Q4 -65.9 -2 -66" stroke="#43365C" stroke-width=".89" fill="none" stroke-linecap="round" opacity=".9"/><path d="M8 -60Q-3 -63.6 -14 -62.4" stroke="#2A2139" stroke-width=".45" fill="none" stroke-linecap="round" opacity=".9"/><path d="M16.4 -57Q6.2 -64.6 -4 -66.6" stroke="#43365C" stroke-width=".67" fill="none" stroke-linecap="round" opacity=".9"/><path d="M5.5 -52.2Q-1.6 -48.3 -3.6 -39.2Q.6 -46.1 9.3 -48.6Z" fill="#07060B"/><path d="M2.3 -53.1Q-5.3 -50.6 -9.4 -42.6Q-3.8 -48.3 4.9 -49.3Z" fill="#07060B"/><path d="M9.4 -49.7Q5.4 -46.5 4.6 -40.8Q7.1 -45.1 12.2 -47.5Z" fill="#07060B"/><path d="M-2.8 -52.4Q-9.3 -50.7 -13.6 -44.8Q-8.3 -48.8 -1.2 -49.2Z" fill="#07060B"/><path d="M13.9 -44.8Q15.1 -40.1 18.8 -36.4Q16.9 -40.8 16.9 -46Z" fill="#07060B"/><path d="M11.4 -47.4Q9.1 -42.9 9.8 -37.6Q10.6 -42.5 13.8 -46.6Z" fill="#07060B"/><path d="M7.4 -50.4Q3.9 -44.8 -.8 -42" stroke="#4A3D63" stroke-width=".45" fill="none" stroke-linecap="round"/><path d="M3.6 -51.2Q-1.1 -46.9 -6.2 -44.8" stroke="#4A3D63" stroke-width=".45" fill="none" stroke-linecap="round"/><path d="M10.8 -48.6Q8.8 -44.7 6.2 -42.8" stroke="#4A3D63" stroke-width=".45" fill="none" stroke-linecap="round"/><path d="M-2 -50.8Q-6.5 -47.8 -10.7 -46.3" stroke="#4A3D63" stroke-width=".45" fill="none" stroke-linecap="round"/><g style="animation:mvEye 4.2s ease-in-out infinite" opacity=".8"><circle cx="-7.8" cy="-27.6" r="3.3" fill="url(#mvEyeG)"/><circle cx="7.8" cy="-27.6" r="3.3" fill="url(#mvEyeG)"/></g></g><filter id="mvRim" x="-15%" y="-8%" width="130%" height="116%" color-interpolation-filters="sRGB"><feOffset in="SourceAlpha" dx="2.2" dy="-.55" result="o1"/><feComposite in="SourceAlpha" in2="o1" operator="out" result="e1"/><feGaussianBlur in="e1" stdDeviation=".45" result="e1s"/><feFlood flood-color="#8B5CF6" flood-opacity=".78"/><feComposite in2="e1s" operator="in" result="r1"/><feGaussianBlur in="r1" stdDeviation="2.6" result="r1b"/><feOffset in="SourceAlpha" dx="-1.2" dy="0" result="o2"/><feComposite in="SourceAlpha" in2="o2" operator="out" result="e2"/><feFlood flood-color="#C4B5FD" flood-opacity=".16"/><feComposite in2="e2" operator="in" result="r2"/><feTurbulence type="fractalNoise" baseFrequency=".8" numOctaves="2" seed="7" result="nz"/><feColorMatrix in="nz" type="matrix" values="0 0 0 0 .55  0 0 0 0 .5  0 0 0 0 .68  0 0 0 .24 -.1" result="nzc"/><feComposite in="nzc" in2="SourceAlpha" operator="in" result="grain"/><feMerge><feMergeNode in="r1b"/><feMergeNode in="SourceGraphic"/><feMergeNode in="grain"/><feMergeNode in="r1"/><feMergeNode in="r2"/></feMerge></filter><radialGradient id="vwSmG" cx=".5" cy=".5" r=".5"><stop offset="0" stop-color="#050309" stop-opacity=".92"/><stop offset=".55" stop-color="#12091C" stop-opacity=".55"/><stop offset="1" stop-color="#1A0D26" stop-opacity="0"/></radialGradient><radialGradient id="vwFogBG" cx=".5" cy=".5" r=".5"><stop offset="0" stop-color="#6D4FB0" stop-opacity=".2"/><stop offset="1" stop-color="#6D4FB0" stop-opacity="0"/></radialGradient><radialGradient id="vwV" cx=".5" cy=".5" r=".75"><stop offset="0" stop-color="#020203" stop-opacity="0"/><stop offset=".65" stop-color="#020203" stop-opacity=".245"/><stop offset="1" stop-color="#020203" stop-opacity=".7"/></radialGradient><path id="g5_ad" d="m386-700h117l-386 700h-117z"/><path id="g5_2d" d="m70-700h426l102 103v238l-103 104h-309v255h-116zm374 347l40-40v-169l-40-40h-258v249z"/><path id="g5_4" d="m264-700h110l253 700h-118l-60-166h-261l-60 166h-118zm158 437l-103-296h-2l-101 296z"/><path id="g5_31" d="m55-103v-88h114v53l38 38h218l40-40v-129l-39-39h-266l-103-102v-187l103-103h308l103 103v89h-114v-54l-39-38h-208l-39 38v116l39 38h266l103 103v200l-105 105h-316z"/><path id="g5_17" d="m60-113v-474l113-113h334l111 111v92h-116v-51l-53-52h-216l-57 56v388l57 56h216l56-55v-127h-153v-100h266v269l-113 113h-332z"/><path id="g5_11" d="m70-700h488v99h-372v200h343v98h-343v204h372v99h-488z"/><path id="g5_aa" d="m45-242v-97l61-63h102l61 63v97l-61 63h-102z"/><path id="g5_38" d="m15-700h120l185 562h2l185-562h120l-248 700h-116z"/><path id="g5_25" d="m60-113v-474l113-113h346l113 113v474l-113 113h-346zm399 13l57-56v-388l-57-56h-226l-57 56v388l57 56z"/><path id="g5_19" d="m75-700h116v700h-116z"/><path id="g5_f" d="m70-700h433l117 117v466l-117 117h-433zm377 600l57-56v-388l-57-56h-261v500z"/><path id="g5_39" d="m30-700h117l94 527h3l149-527h93l144 527h4l93-527h117l-144 700h-112l-147-525h-3l-152 525h-112z"/><path id="g5_20" d="m70-700h116v601h352v99h-468z"/><path id="g5_1f" d="m70-700h116v301h125l173-301h129l-203 349l220 351h-132l-187-299h-125v299h-116z"/><path id="g5_30" d="m602-226v226h-116v-198l-72-79h-228v277h-116v-700h426l102 103v215l-73 73zm-416-147h258l40-40v-149l-40-40h-258z"/><path id="g5_32" d="m230-601h-210v-99h536v99h-210v601h-116z"/><path id="g5_18" d="m70-700h116v301h318v-301h116v700h-116v-299h-318v299h-116z"/><path id="g5_d" d="m60-113v-474l113-113h328l111 111v92h-116v-51l-53-52h-210l-57 56v388l57 56h210l53-52v-51h116v92l-111 111h-328z"/><path id="g5_22" d="m70-700h111l214 482h2l214-482h112v700h-111v-468h-2l-176 379h-76l-175-379h-2v468h-111z"/><path id="g5_c" d="m70-700h424l97 97v196l-43 43l74 74v185l-105 105h-447zm366 301l41-41v-122l-40-40h-254v203zm24 301l48-48v-112l-48-47h-277v207z"/></defs><g clip-path="url(#vwClip)"><rect width="1000" height="230" fill="#050507"/><ellipse cx="560" cy="96" rx="320" ry="184" fill="url(#vwF)"/><path d="M85 257.5L85 52.5Q85 -26.6 560 -53Q1035 -26.6 1035 52.5L1035 257.5Z" fill="none" stroke="#12091C" stroke-width="26" opacity="1"/><path d="M85 257.5L85 52.5Q85 -26.6 560 -53Q1035 -26.6 1035 52.5L1035 257.5Z" fill="none" stroke="#8B5CF6" stroke-width="1.5" opacity=".12"/><path d="M182.3 227.2L182.3 60.7Q182.3 -3.6 560 -25.1Q937.7 -3.6 937.7 60.7L937.7 227.2Z" fill="none" stroke="#12091C" stroke-width="20.2" opacity=".89"/><path d="M182.3 227.2L182.3 60.7Q182.3 -3.6 560 -25.1Q937.7 -3.6 937.7 60.7L937.7 227.2Z" fill="none" stroke="#8B5CF6" stroke-width="1.4" opacity=".16"/><path d="M270.3 199.8L270.3 68.1Q270.3 17.2 560 .2Q849.7 17.2 849.7 68.1L849.7 199.8Z" fill="none" stroke="#12091C" stroke-width="15.2" opacity=".79"/><path d="M270.3 199.8L270.3 68.1Q270.3 17.2 560 .2Q849.7 17.2 849.7 68.1L849.7 199.8Z" fill="none" stroke="#8B5CF6" stroke-width="1.2" opacity=".21"/><path d="M348.2 175.5L348.2 74.6Q348.2 35.6 560 22.6Q771.8 35.6 771.8 74.6L771.8 175.5Z" fill="none" stroke="#12091C" stroke-width="11.2" opacity=".68"/><path d="M348.2 175.5L348.2 74.6Q348.2 35.6 560 22.6Q771.8 35.6 771.8 74.6L771.8 175.5Z" fill="none" stroke="#8B5CF6" stroke-width="1.1" opacity=".25"/><path d="M415.3 154.6L415.3 80.2Q415.3 51.5 560 41.9Q704.7 51.5 704.7 80.2L704.7 154.6Z" fill="none" stroke="#12091C" stroke-width="8" opacity=".57"/><path d="M415.3 154.6L415.3 80.2Q415.3 51.5 560 41.9Q704.7 51.5 704.7 80.2L704.7 154.6Z" fill="none" stroke="#8B5CF6" stroke-width=".9" opacity=".29"/><path d="M470 137.6L470 84.8Q470 64.4 560 57.6Q650 64.4 650 84.8L650 137.6Z" fill="none" stroke="#12091C" stroke-width="5.8" opacity=".46"/><path d="M470 137.6L470 84.8Q470 64.4 560 57.6Q650 64.4 650 84.8L650 137.6Z" fill="none" stroke="#8B5CF6" stroke-width=".8" opacity=".33"/><path d="M510.2 125L510.2 88.2Q510.2 73.9 560 69.2Q609.8 73.9 609.8 88.2L609.8 125Z" fill="none" stroke="#12091C" stroke-width="4.4" opacity=".36"/><path d="M510.2 125L510.2 88.2Q510.2 73.9 560 69.2Q609.8 73.9 609.8 88.2L609.8 125Z" fill="none" stroke="#8B5CF6" stroke-width=".6" opacity=".38"/><path d="M0 230L530 136L590 136L1000 230Z" fill="url(#vwL)"/><path d="M528 136L-80 230" stroke="#8B5CF6" stroke-width=".5" opacity=".12"/><path d="M536 136L80 230" stroke="#8B5CF6" stroke-width=".5" opacity=".12"/><path d="M544 136L240 230" stroke="#8B5CF6" stroke-width=".5" opacity=".12"/><path d="M552 136L400 230" stroke="#8B5CF6" stroke-width=".5" opacity=".12"/><path d="M560 136L560 230" stroke="#8B5CF6" stroke-width=".5" opacity=".12"/><path d="M568 136L720 230" stroke="#8B5CF6" stroke-width=".5" opacity=".12"/><path d="M576 136L880 230" stroke="#8B5CF6" stroke-width=".5" opacity=".12"/><path d="M584 136L1040 230" stroke="#8B5CF6" stroke-width=".5" opacity=".12"/><path d="M592 136L1200 230" stroke="#8B5CF6" stroke-width=".5" opacity=".12"/><g style="animation:vwFogA 36s linear infinite"><ellipse cx="236" cy="133.3" rx="171.5" ry="27.2" fill="url(#vwFogAG)"/><ellipse cx="66.5" cy="145.9" rx="239.3" ry="38.5" fill="url(#vwFogAG)"/><ellipse cx="765.2" cy="138.3" rx="189.8" ry="29.3" fill="url(#vwFogAG)"/><ellipse cx="172.7" cy="133.5" rx="147.9" ry="40.7" fill="url(#vwFogAG)"/><ellipse cx="828.9" cy="162.9" rx="224.1" ry="27.9" fill="url(#vwFogAG)"/><ellipse cx="309.8" cy="155.3" rx="215.1" ry="39.5" fill="url(#vwFogAG)"/><ellipse cx="880.1" cy="132.6" rx="198.8" ry="36.3" fill="url(#vwFogAG)"/><ellipse cx="506" cy="136.5" rx="181.6" ry="26.1" fill="url(#vwFogAG)"/><ellipse cx="934.6" cy="165.4" rx="191.2" ry="29.8" fill="url(#vwFogAG)"/><g transform="translate(1000 0)"><ellipse cx="236" cy="133.3" rx="171.5" ry="27.2" fill="url(#vwFogAG)"/><ellipse cx="66.5" cy="145.9" rx="239.3" ry="38.5" fill="url(#vwFogAG)"/><ellipse cx="765.2" cy="138.3" rx="189.8" ry="29.3" fill="url(#vwFogAG)"/><ellipse cx="172.7" cy="133.5" rx="147.9" ry="40.7" fill="url(#vwFogAG)"/><ellipse cx="828.9" cy="162.9" rx="224.1" ry="27.9" fill="url(#vwFogAG)"/><ellipse cx="309.8" cy="155.3" rx="215.1" ry="39.5" fill="url(#vwFogAG)"/><ellipse cx="880.1" cy="132.6" rx="198.8" ry="36.3" fill="url(#vwFogAG)"/><ellipse cx="506" cy="136.5" rx="181.6" ry="26.1" fill="url(#vwFogAG)"/><ellipse cx="934.6" cy="165.4" rx="191.2" ry="29.8" fill="url(#vwFogAG)"/></g></g><g transform="translate(560 214) scale(.36)"><g style="animation:vwStep 1.2s ease-in-out infinite"><ellipse cx="0" cy="-250" rx="130" ry="250" fill="url(#mvAura120)" style="transform-box:fill-box;transform-origin:center;animation:mvAuraPulse 6s ease-in-out infinite"/><g transform="translate(0 20.2)"><g filter="url(#mvRim)"><path d="M-32-302L32-302Q48.4-180 60-60L17.1-54L-12.6-70L-53.1-54L-96-60Q-48.4-180-32-302Z" fill="#040306"/><path d="M-20-290L20-290L20-68L-41.6-68Z" fill="url(#mvLining)"/><path d="M-12-286L12-286L5.2-70L-26.8-70Z" fill="url(#mvLinSheen)"/><path d="M-12.6-72L-7.2-200" stroke="#120E19" stroke-width="1.4"/><g transform="translate(-14 -262) rotate(10)"><path d="M-12.5 0C-13.1 38.5 -9.9 77 -9.5 110Q0 117.6 9.5 110C9.9 77 13.1 38.5 12.5 0Z" fill="url(#mvTrL)"/><circle r="12.5" fill="url(#mvTrL)"/><path d="M-2 10L-3 102" stroke="#231C2E" stroke-width="1.2" opacity=".8"/><g transform="translate(0 110) rotate(18)"><path d="M-9.5 0C-9.5 39.2 -7.5 78.4 -7.5 112Q0 118 7.5 112C7.5 78.4 9.5 39.2 9.5 0Z" fill="url(#mvTrL)"/><circle r="9.5" fill="url(#mvTrL)"/><path d="M-9.2 47L9.2 47L8.6 112L-8.6 112Z" fill="url(#mvBoot)"/><path d="M-9 47L9 47" stroke="#2E2540" stroke-width="1.2"/><path d="M-5.6 56L-6.2 106.4" stroke="#6E6188" stroke-width=".9" opacity=".45" stroke-linecap="round"/><g transform="translate(0 112) rotate(-28)"><path d="M-8.6 -2L8.6 -2L9.2 12Q4 20 -3 21L-8 21Q-9.8 20-9.4 12Z" fill="url(#mvBoot)"/><path d="M-9 16.6Q-4 19 1 17" stroke="#3B3149" stroke-width="1" fill="none"/><rect x="-5.2" y="3" width="10.4" height="2.2" rx=".8" fill="#D6D2E2" opacity=".8"/></g></g></g><g transform="translate(14 -262) rotate(2)"><path d="M-12.5 0C-13.1 38.5 -9.9 77 -9.5 110Q0 117.6 9.5 110C9.9 77 13.1 38.5 12.5 0Z" fill="url(#mvTrR)"/><circle r="12.5" fill="url(#mvTrR)"/><path d="M2 10L3 102" stroke="#231C2E" stroke-width="1.2" opacity=".8"/><g transform="translate(0 110) rotate(6)"><path d="M-9.5 0C-9.5 39.2 -7.5 78.4 -7.5 112Q0 118 7.5 112C7.5 78.4 9.5 39.2 9.5 0Z" fill="url(#mvTrR)"/><circle r="9.5" fill="url(#mvTrR)"/><path d="M-9.2 47L9.2 47L8.6 112L-8.6 112Z" fill="url(#mvBoot)"/><path d="M-9 47L9 47" stroke="#2E2540" stroke-width="1.2"/><path d="M-5.6 56L-6.2 106.4" stroke="#6E6188" stroke-width=".9" opacity=".45" stroke-linecap="round"/><g transform="translate(0 112) rotate(-8)"><path d="M-8.6 -2L8.6 -2L9.2 12Q12 20 9 21L-4 21Q-9.8 20-9.4 12Z" fill="url(#mvBoot)"/><path d="M1 16.6Q6 19 11 17" stroke="#3B3149" stroke-width="1" fill="none"/><rect x="-5.2" y="3" width="10.4" height="2.2" rx=".8" fill="#D6D2E2" opacity=".8"/></g></g></g><g transform="rotate(0 0 -262)"><path d="M-9-414L9-414L10.5-397L-10.5-397Z" fill="#6E6188"/><path d="M-10.5-400L10.5-400L14-392L-14-392Z" fill="#2A2336"/><path d="M-14.5-394L14.5-394L20.5-296L7-289L0-294L-7-289L-20.5-296Z" fill="url(#mvVest)"/><path d="M-14.5-394L14.5-394L20.5-296L7-289L0-294L-7-289L-20.5-296Z" fill="url(#mvBrocade)" opacity=".9"/><path d="M0-376V-294" stroke="#05040A" stroke-width="1"/><circle cx="1.8" cy="-368" r="1.3" fill="#D6D2E2"/><circle cx="1.4" cy="-368.4" r=".45" fill="#FFFFFF" opacity=".8"/><circle cx="1.8" cy="-352" r="1.3" fill="#D6D2E2"/><circle cx="1.4" cy="-352.4" r=".45" fill="#FFFFFF" opacity=".8"/><circle cx="1.8" cy="-336" r="1.3" fill="#D6D2E2"/><circle cx="1.4" cy="-336.4" r=".45" fill="#FFFFFF" opacity=".8"/><circle cx="1.8" cy="-320" r="1.3" fill="#D6D2E2"/><circle cx="1.4" cy="-320.4" r=".45" fill="#FFFFFF" opacity=".8"/><circle cx="1.8" cy="-304" r="1.3" fill="#D6D2E2"/><circle cx="1.4" cy="-304.4" r=".45" fill="#FFFFFF" opacity=".8"/><path d="M2.6-336Q10-326 17-330" stroke="#D6D2E2" stroke-width=".8" stroke-dasharray="1.4 .9" fill="none"/><path d="M-8.8-400Q0-396 8.8-400L7.6-388Q10.2-378 7.4-366L0-360L-7.4-366Q-10.2-378-7.6-388Z" fill="url(#mvSilk)"/><path d="M-3-386Q0-372-1.4-364M3.2-386Q1.6-374 3.2-366" stroke="#4C2A80" stroke-width=".7" fill="none" opacity=".8"/><path d="M-6-384Q-4-374-5.4-367" stroke="#8E80B0" stroke-width=".9" fill="none" opacity=".35" filter="url(#mvSoft)"/><circle cx="0" cy="-391" r="10" fill="url(#mvGemGl)" style="animation:mvGem 3.6s ease-in-out infinite"/><ellipse cx="0" cy="-391" rx="4.6" ry="5.6" fill="#D6D2E2"/><ellipse cx="0" cy="-391" rx="4.6" ry="5.6" fill="none" stroke="#6E6188" stroke-width=".5"/><path d="M0-395.8L3.4-393L3.4-389L0-386.2L-3.4-389L-3.4-393Z" fill="url(#mvGem)"/><path d="M0-395.8L0-386.2M-3.4-393L3.4-389M3.4-393L-3.4-389" stroke="#EFEAFF" stroke-width=".3" opacity=".6"/><path d="M-10-398L-30-395Q-44-392 -47-385L-46-370L-44-352L-36-318L-33-298L-37-264Q-59.6-170 -94-66Q-66.4-57 -39.6-63L-10.5-250L-2-296L-9-338L-10-398Z" fill="url(#mvCoatL)"/><path d="M-10.5-250L-39.6-63L-35.6-64L-8.5-252Z" fill="url(#mvLinEdge)" opacity=".85"/><path d="M-24.7-282Q-38-170 -45-70" stroke="#030204" stroke-width="3.2" fill="none" opacity="0.63" filter="url(#mvSoft2)"/><path d="M-24.7-282Q-38-170 -45-70" transform="translate(-3 0)" stroke="#3A3050" stroke-width="1.4" fill="none" opacity="0.41" filter="url(#mvSoft)"/><path d="M-26.9-282Q-41-170 -62.5-70" stroke="#030204" stroke-width="3.2" fill="none" opacity="0.52" filter="url(#mvSoft2)"/><path d="M-26.9-282Q-41-170 -62.5-70" transform="translate(-3 0)" stroke="#3A3050" stroke-width="1.4" fill="none" opacity="0.34" filter="url(#mvSoft)"/><path d="M-29.2-282Q-44-170 -80-70" stroke="#030204" stroke-width="3.2" fill="none" opacity="0.42" filter="url(#mvSoft2)"/><path d="M-29.2-282Q-44-170 -80-70" transform="translate(-3 0)" stroke="#3A3050" stroke-width="1.4" fill="none" opacity="0.27" filter="url(#mvSoft)"/><path d="M-10-398L-31-378L-26.5-371.5L-23-356L-9.5-337L-10.5-360Z" fill="url(#mvLapel)"/><path d="M-31-378L-26.5-371.5L-23-356L-9.5-337" stroke="#4A3D63" stroke-width=".7" fill="none" opacity=".9"/><circle cx="-4.6" cy="-299" r="1.6" fill="#D6D2E2"/><circle cx="-4.2" cy="-299.5" r=".5" fill="#FFFFFF" opacity=".8"/><path d="M-22-252L-38-254L-38.5-248L-22.5-246Z" fill="#020203" opacity=".9"/><path d="M10-398L30-395Q44-392 47-385L46-370L44-352L36-318L33-298L37-264Q45.2-170 58-66Q34-57 21.6-63L10.5-250L2-296L9-338L10-398Z" fill="url(#mvCoatR)"/><path d="M10.5-250L21.6-63L17.6-64L8.5-252Z" fill="url(#mvLinEdge)" opacity=".85"/><path d="M24.7-282Q27.2-170 34.2-70" stroke="#030204" stroke-width="3.2" fill="none" opacity="0.63" filter="url(#mvSoft2)"/><path d="M26.9-282Q30.2-170 42.7-70" stroke="#030204" stroke-width="3.2" fill="none" opacity="0.52" filter="url(#mvSoft2)"/><path d="M29.2-282Q33.2-170 51.2-70" stroke="#030204" stroke-width="3.2" fill="none" opacity="0.42" filter="url(#mvSoft2)"/><path d="M10-398L31-378L26.5-371.5L23-356L9.5-337L10.5-360Z" fill="url(#mvLapel)"/><path d="M31-378L26.5-371.5L23-356L9.5-337" stroke="#4A3D63" stroke-width=".7" fill="none" opacity=".9"/><circle cx="4.6" cy="-299" r="1.6" fill="#D6D2E2"/><circle cx="4.2" cy="-299.5" r=".5" fill="#FFFFFF" opacity=".8"/><path d="M22-252L38-254L38.5-248L22.5-246Z" fill="#020203" opacity=".9"/><path d="M-30-394Q0-386 30-394L28-384Q0-378-28-384Z" fill="#000" opacity=".35" filter="url(#mvSoft2)"/><path d="M-19.5-354Q0-338 19.5-354" stroke="#D6D2E2" stroke-width=".8" stroke-dasharray="1.6 1" fill="none"/><path d="M-17-426Q0-431 17-426L15-398L-15-398Z" fill="#050407"/><path d="M-12-398L-16-428L-31-425L-38-395Z" fill="#07060A"/><path d="M-13.6-399L-17-425.4L-28.4-422L-33.5-397Z" fill="url(#mvCollar)"/><path d="M-16-428L-31-425" stroke="#8B5CF6" stroke-width=".7" opacity="0.7"/><path d="M-17.5-423L-28-420" stroke="#8E80B0" stroke-width=".5" opacity="0.35"/><path d="M12-398L16-428L31-425L38-395Z" fill="#07060A"/><path d="M13.6-399L17-425.4L28.4-422L33.5-397Z" fill="url(#mvCollarR)"/><path d="M16-428L31-425" stroke="#8B5CF6" stroke-width=".7" opacity="0.35"/><path d="M17.5-423L28-420" stroke="#8E80B0" stroke-width=".5" opacity="0.12"/><g transform="translate(0 -412) rotate(0 0 6)"><use href="#mvHcal10"/></g><g transform="translate(-41 -388) rotate(10)"><path d="M-9.8 0C-10.9 29.4 -8.5 58.8 -7.8 84Q0 90.2 7.8 84C8.5 58.8 10.9 29.4 9.8 0Z" fill="url(#mvSleeveL)"/><circle r="9.8" fill="url(#mvSleeveL)"/><path d="M-3 18.5Q1.4 42 -1.6 68.9" stroke="#2E2540" stroke-width="1.4" fill="none" opacity=".75" filter="url(#mvSoft)"/><path d="M-5.6 78Q0 85 5.6 79" stroke="#241C31" stroke-width="1.2" fill="none" opacity=".8"/><g transform="translate(0 84) rotate(-12)"><path d="M-7.8 0C-8.5 26.6 -6.9 53.2 -6.5 76Q0 81.2 6.5 76C6.9 53.2 8.5 26.6 7.8 0Z" fill="url(#mvSleeveL)"/><circle r="7.8" fill="url(#mvSleeveL)"/><path d="M2.4 11.4Q-1.4 34.2 1.2 54.7" stroke="#221B2E" stroke-width="1.1" fill="none" opacity=".8" filter="url(#mvSoft)"/><path d="M-8.4 66L8.4 66L9.4 77L-9.4 77Z" fill="#060509"/><path d="M-8.6 66L8.6 66" stroke="#D6D2E2" stroke-width=".75" opacity=".85"/><path d="M-7.4 76.8L7.4 76.8" stroke="#A89CBD" stroke-width="1.8" opacity=".75"/><g transform="translate(0 77) rotate(0)"><g transform="scale(1 1)"><path d="M-5 0C-6 5-6.6 11-5.6 16.4C-4.6 21.6-2 24.6.6 24.6C3.2 24.6 5.2 21.4 5.6 16.4C6 11 6 5 5 0Z" fill="#CFC7DD"/><path d="M1.6 0C3 6 3.4 12 3 18C2.6 21.6 1.8 23.8.6 24.6C3.2 24.6 5.2 21.4 5.6 16.4C6 11 6 5 5 0Z" fill="#8C7FA5" opacity=".45"/><path d="M4.6 3.4C7.8 6.4 8.4 10.4 7 13.4C6 12.2 5.4 9.4 4.2 7.4Z" fill="#CFC7DD"/><path d="M-1.6 14V23M1.6 14.4V23.2" stroke="#8C7FA5" stroke-width=".5" opacity=".7"/><path d="M-5 0L5 0L5.6 4L-5.4 4.2Z" fill="#8C7FA5" opacity=".55"/><rect x="-3" y="13.6" width="2.6" height="1.5" rx=".5" fill="#D6D2E2"/></g></g></g></g><g transform="translate(41 -388) rotate(4)"><path d="M-9.8 0C-10.9 29.4 -8.5 58.8 -7.8 84Q0 90.2 7.8 84C8.5 58.8 10.9 29.4 9.8 0Z" fill="url(#mvSleeveR)"/><circle r="9.8" fill="url(#mvSleeveR)"/><path d="M-3 18.5Q1.4 42 -1.6 68.9" stroke="#2E2540" stroke-width="1.4" fill="none" opacity=".75" filter="url(#mvSoft)"/><path d="M-5.6 78Q0 85 5.6 79" stroke="#241C31" stroke-width="1.2" fill="none" opacity=".8"/><g transform="translate(0 84) rotate(6)"><path d="M-7.8 0C-8.5 26.6 -6.9 53.2 -6.5 76Q0 81.2 6.5 76C6.9 53.2 8.5 26.6 7.8 0Z" fill="url(#mvSleeveR)"/><circle r="7.8" fill="url(#mvSleeveR)"/><path d="M2.4 11.4Q-1.4 34.2 1.2 54.7" stroke="#221B2E" stroke-width="1.1" fill="none" opacity=".8" filter="url(#mvSoft)"/><path d="M-8.4 66L8.4 66L9.4 77L-9.4 77Z" fill="#060509"/><path d="M-8.6 66L8.6 66" stroke="#D6D2E2" stroke-width=".75" opacity=".85"/><path d="M-7.4 76.8L7.4 76.8" stroke="#A89CBD" stroke-width="1.8" opacity=".75"/><g transform="translate(0 77) rotate(0)"><g transform="scale(-1 1)"><path d="M-5 0C-6 5-6.6 11-5.6 16.4C-4.6 21.6-2 24.6.6 24.6C3.2 24.6 5.2 21.4 5.6 16.4C6 11 6 5 5 0Z" fill="#CFC7DD"/><path d="M1.6 0C3 6 3.4 12 3 18C2.6 21.6 1.8 23.8.6 24.6C3.2 24.6 5.2 21.4 5.6 16.4C6 11 6 5 5 0Z" fill="#8C7FA5" opacity=".45"/><path d="M4.6 3.4C7.8 6.4 8.4 10.4 7 13.4C6 12.2 5.4 9.4 4.2 7.4Z" fill="#CFC7DD"/><path d="M-1.6 14V23M1.6 14.4V23.2" stroke="#8C7FA5" stroke-width=".5" opacity=".7"/><path d="M-5 0L5 0L5.6 4L-5.4 4.2Z" fill="#8C7FA5" opacity=".55"/></g></g></g></g></g></g></g></g><g style="transform-box:fill-box;transform-origin:center;animation:vwSm 9s ease-in-out infinite"><ellipse cx="-125.8" cy="-4.2" rx="66.1" ry="17.5" fill="url(#vwSmG)"/><ellipse cx="-73.2" cy="-10.4" rx="69.4" ry="14.9" fill="url(#vwSmG)"/><ellipse cx="-63" cy="-4.4" rx="55.9" ry="16" fill="url(#vwSmG)"/><ellipse cx="-122.1" cy="-10.9" rx="76.1" ry="12.2" fill="url(#vwSmG)"/><ellipse cx="-76.7" cy="-2.7" rx="65.3" ry="10.3" fill="url(#vwSmG)"/><ellipse cx="16.4" cy="-4.7" rx="46.6" ry="14.9" fill="url(#vwSmG)"/><ellipse cx="-120.6" cy="-9.3" rx="43.3" ry="10.8" fill="url(#vwSmG)"/></g></g><g style="animation:vwFogB 26s linear infinite"><ellipse cx="622.9" cy="217.3" rx="223.4" ry="29.3" fill="url(#vwFogBG)"/><ellipse cx="739.9" cy="222.7" rx="123.8" ry="23.3" fill="url(#vwFogBG)"/><ellipse cx="943.4" cy="214.5" rx="237.1" ry="18.9" fill="url(#vwFogBG)"/><ellipse cx="469.1" cy="202.4" rx="190.7" ry="24.7" fill="url(#vwFogBG)"/><ellipse cx="13.1" cy="201.5" rx="156.3" ry="29" fill="url(#vwFogBG)"/><ellipse cx="765.7" cy="199.8" rx="223.6" ry="19.2" fill="url(#vwFogBG)"/><ellipse cx="617.5" cy="198.8" rx="120.2" ry="28.4" fill="url(#vwFogBG)"/><ellipse cx="209.5" cy="201.5" rx="247.7" ry="28.4" fill="url(#vwFogBG)"/><ellipse cx="289.3" cy="223.8" rx="190.1" ry="26" fill="url(#vwFogBG)"/><g transform="translate(1000 0)"><ellipse cx="622.9" cy="217.3" rx="223.4" ry="29.3" fill="url(#vwFogBG)"/><ellipse cx="739.9" cy="222.7" rx="123.8" ry="23.3" fill="url(#vwFogBG)"/><ellipse cx="943.4" cy="214.5" rx="237.1" ry="18.9" fill="url(#vwFogBG)"/><ellipse cx="469.1" cy="202.4" rx="190.7" ry="24.7" fill="url(#vwFogBG)"/><ellipse cx="13.1" cy="201.5" rx="156.3" ry="29" fill="url(#vwFogBG)"/><ellipse cx="765.7" cy="199.8" rx="223.6" ry="19.2" fill="url(#vwFogBG)"/><ellipse cx="617.5" cy="198.8" rx="120.2" ry="28.4" fill="url(#vwFogBG)"/><ellipse cx="209.5" cy="201.5" rx="247.7" ry="28.4" fill="url(#vwFogBG)"/><ellipse cx="289.3" cy="223.8" rx="190.1" ry="26" fill="url(#vwFogBG)"/></g></g><rect width="1000" height="230" fill="url(#vwV)"/><g transform="translate(44 44) scale(.0105)" fill="#C4B5FD"><use href="#g5_ad" x="0"/><use href="#g5_ad" x="823"/><use href="#g5_2d" x="2229"/><use href="#g5_4" x="3112"/><use href="#g5_31" x="4054"/><use href="#g5_31" x="5003"/><use href="#g5_4" x="5932"/><use href="#g5_17" x="6874"/><use href="#g5_11" x="7862"/><use href="#g5_aa" x="9946"/><use href="#g5_38" x="11746"/><use href="#g5_25" x="12693"/><use href="#g5_19" x="13705"/><use href="#g5_f" x="14291"/><use href="#g5_39" x="15874"/><use href="#g5_4" x="17023"/><use href="#g5_20" x="17980"/><use href="#g5_1f" x="18853"/><use href="#g5_11" x="19813"/><use href="#g5_30" x="20731"/></g><g transform="translate(44 68) scale(.015)" fill="#F5F3FF"><use href="#g5_32" x="0"/><use href="#g5_25" x="781"/><use href="#g5_32" x="2176"/><use href="#g5_18" x="2972"/><use href="#g5_11" x="3882"/><use href="#g5_2d" x="5183"/><use href="#g5_25" x="6041"/><use href="#g5_30" x="6953"/><use href="#g5_32" x="7825"/><use href="#g5_4" x="8531"/><use href="#g5_20" x="9388"/><use href="#g5_d" x="10644"/><use href="#g5_18" x="11511"/><use href="#g5_4" x="12421"/><use href="#g5_22" x="13278"/><use href="#g5_c" x="14291"/><use href="#g5_11" x="15173"/><use href="#g5_30" x="15991"/></g><path d="M34 37.1L37.4 40.5L34 43.9L30.6 40.5Z" fill="#8B5CF6"/></g><rect x=".6" y=".6" width="998.8" height="228.8" rx="17.5" fill="none" stroke="#8B5CF6" stroke-opacity=".35"/></svg>